%TF.GenerationSoftware,KiCad,Pcbnew,9.0.6*%
%TF.CreationDate,2026-03-20T20:15:30-06:00*%
%TF.ProjectId,ToothPaste_V1_USB_C,546f6f74-6850-4617-9374-655f56315f55,rev?*%
%TF.SameCoordinates,Original*%
%TF.FileFunction,Copper,L2,Bot*%
%TF.FilePolarity,Positive*%
%FSLAX46Y46*%
G04 Gerber Fmt 4.6, Leading zero omitted, Abs format (unit mm)*
G04 Created by KiCad (PCBNEW 9.0.6) date 2026-03-20 20:15:30*
%MOMM*%
%LPD*%
G01*
G04 APERTURE LIST*
G04 Aperture macros list*
%AMRoundRect*
0 Rectangle with rounded corners*
0 $1 Rounding radius*
0 $2 $3 $4 $5 $6 $7 $8 $9 X,Y pos of 4 corners*
0 Add a 4 corners polygon primitive as box body*
4,1,4,$2,$3,$4,$5,$6,$7,$8,$9,$2,$3,0*
0 Add four circle primitives for the rounded corners*
1,1,$1+$1,$2,$3*
1,1,$1+$1,$4,$5*
1,1,$1+$1,$6,$7*
1,1,$1+$1,$8,$9*
0 Add four rect primitives between the rounded corners*
20,1,$1+$1,$2,$3,$4,$5,0*
20,1,$1+$1,$4,$5,$6,$7,0*
20,1,$1+$1,$6,$7,$8,$9,0*
20,1,$1+$1,$8,$9,$2,$3,0*%
G04 Aperture macros list end*
%TA.AperFunction,ComponentPad*%
%ADD10O,1.000000X2.100000*%
%TD*%
%TA.AperFunction,HeatsinkPad*%
%ADD11C,0.600000*%
%TD*%
%TA.AperFunction,SMDPad,CuDef*%
%ADD12RoundRect,0.250000X-0.450000X0.350000X-0.450000X-0.350000X0.450000X-0.350000X0.450000X0.350000X0*%
%TD*%
%TA.AperFunction,SMDPad,CuDef*%
%ADD13RoundRect,0.250000X-0.350000X-0.450000X0.350000X-0.450000X0.350000X0.450000X-0.350000X0.450000X0*%
%TD*%
%TA.AperFunction,SMDPad,CuDef*%
%ADD14RoundRect,0.250000X-0.475000X0.337500X-0.475000X-0.337500X0.475000X-0.337500X0.475000X0.337500X0*%
%TD*%
%TA.AperFunction,SMDPad,CuDef*%
%ADD15R,0.700000X0.700000*%
%TD*%
%TA.AperFunction,SMDPad,CuDef*%
%ADD16RoundRect,0.150000X-0.625000X0.150000X-0.625000X-0.150000X0.625000X-0.150000X0.625000X0.150000X0*%
%TD*%
%TA.AperFunction,SMDPad,CuDef*%
%ADD17RoundRect,0.250000X-0.650000X0.350000X-0.650000X-0.350000X0.650000X-0.350000X0.650000X0.350000X0*%
%TD*%
%TA.AperFunction,SMDPad,CuDef*%
%ADD18R,1.000000X0.900000*%
%TD*%
%TA.AperFunction,SMDPad,CuDef*%
%ADD19RoundRect,0.250000X0.475000X-0.337500X0.475000X0.337500X-0.475000X0.337500X-0.475000X-0.337500X0*%
%TD*%
%TA.AperFunction,SMDPad,CuDef*%
%ADD20RoundRect,0.250000X0.337500X0.475000X-0.337500X0.475000X-0.337500X-0.475000X0.337500X-0.475000X0*%
%TD*%
%TA.AperFunction,SMDPad,CuDef*%
%ADD21C,2.000000*%
%TD*%
%TA.AperFunction,SMDPad,CuDef*%
%ADD22R,1.800000X1.100000*%
%TD*%
%TA.AperFunction,SMDPad,CuDef*%
%ADD23RoundRect,0.150000X0.150000X-0.512500X0.150000X0.512500X-0.150000X0.512500X-0.150000X-0.512500X0*%
%TD*%
%TA.AperFunction,SMDPad,CuDef*%
%ADD24RoundRect,0.250000X-0.337500X-0.475000X0.337500X-0.475000X0.337500X0.475000X-0.337500X0.475000X0*%
%TD*%
%TA.AperFunction,ViaPad*%
%ADD25C,0.450000*%
%TD*%
%TA.AperFunction,Conductor*%
%ADD26C,0.160000*%
%TD*%
%TA.AperFunction,Conductor*%
%ADD27C,0.400000*%
%TD*%
G04 APERTURE END LIST*
D10*
%TO.P,P1,3,3*%
%TO.N,GNDREF*%
X106770000Y-105360000D03*
%TO.P,P1,4,4*%
X117230000Y-105360000D03*
%TD*%
D11*
%TO.P,U1,41,GND*%
%TO.N,GNDREF*%
X109115000Y-87260000D03*
X109115000Y-88660000D03*
X109815000Y-86560000D03*
X109815000Y-87960000D03*
X109815000Y-89360000D03*
X110515000Y-87260000D03*
X110515000Y-88660000D03*
X111215000Y-86560000D03*
X111215000Y-87960000D03*
X111215000Y-89360000D03*
X111915000Y-87260000D03*
X111915000Y-88660000D03*
%TD*%
D12*
%TO.P,R4,1*%
%TO.N,+3V3*%
X105500000Y-81500000D03*
%TO.P,R4,2*%
%TO.N,Net-(SW2A-D)*%
X105500000Y-83500000D03*
%TD*%
D13*
%TO.P,R3,1*%
%TO.N,Net-(U1-IO20)*%
X103700000Y-100500000D03*
%TO.P,R3,2*%
%TO.N,Net-(P1-D+)*%
X105700000Y-100500000D03*
%TD*%
D14*
%TO.P,C4,1*%
%TO.N,+3V3*%
X110500000Y-81500000D03*
%TO.P,C4,2*%
%TO.N,GNDREF*%
X110500000Y-83575000D03*
%TD*%
D13*
%TO.P,R2,1*%
%TO.N,Net-(U1-IO19)*%
X103700000Y-102700000D03*
%TO.P,R2,2*%
%TO.N,Net-(P1-D-)*%
X105700000Y-102700000D03*
%TD*%
D15*
%TO.P,D1,1,DOUT*%
%TO.N,unconnected-(D1-DOUT-Pad1)*%
X112830000Y-97700000D03*
%TO.P,D1,2,VSS*%
%TO.N,GNDREF*%
X112830000Y-98800000D03*
%TO.P,D1,3,DIN*%
%TO.N,Net-(D1-DIN)*%
X111000000Y-98800000D03*
%TO.P,D1,4,VDD*%
%TO.N,+5V*%
X111000000Y-97700000D03*
%TD*%
D14*
%TO.P,C5,1*%
%TO.N,+3V3*%
X108000000Y-81500000D03*
%TO.P,C5,2*%
%TO.N,GNDREF*%
X108000000Y-83575000D03*
%TD*%
D16*
%TO.P,J1,1,Pin_1*%
%TO.N,GNDREF*%
X116800000Y-81800000D03*
%TO.P,J1,2,Pin_2*%
%TO.N,Net-(J1-Pin_2)*%
X116800000Y-82800000D03*
%TO.P,J1,3,Pin_3*%
%TO.N,Net-(J1-Pin_3)*%
X116800000Y-83800000D03*
%TO.P,J1,4,Pin_4*%
%TO.N,+3V3*%
X116800000Y-84800000D03*
D17*
%TO.P,J1,MP*%
%TO.N,N/C*%
X120675000Y-80500000D03*
X120675000Y-86100000D03*
%TD*%
D18*
%TO.P,SW2,1,C*%
%TO.N,GNDREF*%
X105100000Y-89900000D03*
X105100000Y-94000000D03*
%TO.P,SW2,2,D*%
%TO.N,Net-(SW2A-D)*%
X106700000Y-89900000D03*
X106700000Y-94000000D03*
%TD*%
D19*
%TO.P,C3,1*%
%TO.N,GNDREF*%
X105500000Y-87575000D03*
%TO.P,C3,2*%
%TO.N,Net-(SW2A-D)*%
X105500000Y-85500000D03*
%TD*%
D20*
%TO.P,C2,1*%
%TO.N,GNDREF*%
X115700000Y-101200000D03*
%TO.P,C2,2*%
%TO.N,Net-(P1-D+)*%
X113625000Y-101200000D03*
%TD*%
D21*
%TO.P,TP1,1,1*%
%TO.N,+3V3*%
X113400000Y-84400000D03*
%TD*%
D22*
%TO.P,SW1,1,C*%
%TO.N,GNDREF*%
X115200000Y-91500000D03*
X109000000Y-91500000D03*
%TO.P,SW1,2,D*%
%TO.N,Net-(SW1A-D)*%
X115200000Y-95200000D03*
X109000000Y-95200000D03*
%TD*%
D21*
%TO.P,TP2,1,1*%
%TO.N,+5V*%
X120000000Y-105000000D03*
%TD*%
D23*
%TO.P,U2,1,IN*%
%TO.N,+5V*%
X120500000Y-101637500D03*
%TO.P,U2,2,GND*%
%TO.N,GNDREF*%
X119550000Y-101637500D03*
%TO.P,U2,3,EN*%
%TO.N,+5V*%
X118600000Y-101637500D03*
%TO.P,U2,4,BP*%
%TO.N,GNDREF*%
X118600000Y-99362500D03*
%TO.P,U2,5,OUT*%
%TO.N,+3V3*%
X120500000Y-99362500D03*
%TD*%
D24*
%TO.P,C1,1*%
%TO.N,GNDREF*%
X108262500Y-101200000D03*
%TO.P,C1,2*%
%TO.N,Net-(P1-D-)*%
X110337500Y-101200000D03*
%TD*%
D25*
%TO.N,GNDREF*%
X103500000Y-105500000D03*
X119200000Y-80200000D03*
X104900000Y-80200000D03*
X117300000Y-103400000D03*
%TO.N,Net-(P1-D-)*%
X110400000Y-100000000D03*
%TO.N,Net-(P1-D+)*%
X105800000Y-99500000D03*
X112800000Y-100000000D03*
%TO.N,+3V3*%
X105500000Y-81500000D03*
%TO.N,+5V*%
X111200000Y-102300000D03*
X120500000Y-101637500D03*
X118600000Y-101637500D03*
%TO.N,Net-(D1-DIN)*%
X106300000Y-96300000D03*
%TO.N,Net-(J1-Pin_2)*%
X118800000Y-82800000D03*
%TO.N,Net-(J1-Pin_3)*%
X118800000Y-83800000D03*
%TO.N,Net-(U1-IO19)*%
X103700000Y-102700000D03*
%TO.N,Net-(U1-IO20)*%
X103600000Y-99300000D03*
%TO.N,Net-(SW1A-D)*%
X117200000Y-96700000D03*
%TO.N,Net-(SW2A-D)*%
X105500000Y-83500000D03*
%TD*%
D26*
%TO.N,GNDREF*%
X118600000Y-99362500D02*
X118600000Y-95737500D01*
%TO.N,Net-(P1-D-)*%
X110400000Y-100000000D02*
X110400000Y-101137500D01*
X108837500Y-102700000D02*
X110337500Y-101200000D01*
X105700000Y-102700000D02*
X108837500Y-102700000D01*
X110400000Y-101137500D02*
X110337500Y-101200000D01*
%TO.N,Net-(P1-D+)*%
X112800000Y-100375000D02*
X113625000Y-101200000D01*
X112800000Y-100000000D02*
X112800000Y-100375000D01*
X105700000Y-99600000D02*
X105800000Y-99500000D01*
X105700000Y-100500000D02*
X105700000Y-99600000D01*
D27*
%TO.N,+3V3*%
X108000000Y-81500000D02*
X110500000Y-81500000D01*
X120500000Y-88500000D02*
X116800000Y-84800000D01*
X116800000Y-84800000D02*
X113800000Y-84800000D01*
X113800000Y-84800000D02*
X110500000Y-81500000D01*
X120500000Y-99362500D02*
X120500000Y-88500000D01*
X105500000Y-81500000D02*
X108000000Y-81500000D01*
D26*
%TO.N,+5V*%
X112200000Y-98900000D02*
X112200000Y-101300000D01*
X120500000Y-104500000D02*
X120000000Y-105000000D01*
X111000000Y-97700000D02*
X112200000Y-98900000D01*
X112200000Y-101300000D02*
X111200000Y-102300000D01*
X117937500Y-102300000D02*
X118600000Y-101637500D01*
X120500000Y-101637500D02*
X120500000Y-104500000D01*
X111200000Y-102300000D02*
X117937500Y-102300000D01*
%TO.N,Net-(D1-DIN)*%
X111000000Y-98800000D02*
X108800000Y-98800000D01*
X108800000Y-98800000D02*
X106300000Y-96300000D01*
%TO.N,Net-(J1-Pin_2)*%
X116800000Y-82800000D02*
X118800000Y-82800000D01*
%TO.N,Net-(J1-Pin_3)*%
X116800000Y-83800000D02*
X118800000Y-83800000D01*
%TO.N,Net-(U1-IO20)*%
X103600000Y-99300000D02*
X103600000Y-100400000D01*
X103600000Y-100400000D02*
X103700000Y-100500000D01*
%TO.N,Net-(SW1A-D)*%
X115700000Y-95200000D02*
X115200000Y-95200000D01*
X117200000Y-96700000D02*
X115700000Y-95200000D01*
X109000000Y-95200000D02*
X115200000Y-95200000D01*
%TO.N,Net-(SW2A-D)*%
X105500000Y-83500000D02*
X105500000Y-85500000D01*
X106700000Y-89900000D02*
X106700000Y-94000000D01*
X107300000Y-89300000D02*
X106700000Y-89900000D01*
X105500000Y-85500000D02*
X107000000Y-85500000D01*
X107300000Y-85800000D02*
X107300000Y-89300000D01*
X107000000Y-85500000D02*
X107300000Y-85800000D01*
%TD*%
%TA.AperFunction,Conductor*%
%TO.N,GNDREF*%
G36*
X119603275Y-79319685D02*
G01*
X119649030Y-79372489D01*
X119658974Y-79441647D01*
X119629949Y-79505203D01*
X119601333Y-79529539D01*
X119556342Y-79557289D01*
X119432289Y-79681342D01*
X119340187Y-79830663D01*
X119340186Y-79830666D01*
X119285001Y-79997203D01*
X119285001Y-79997204D01*
X119285000Y-79997204D01*
X119274500Y-80099983D01*
X119274500Y-80900001D01*
X119274501Y-80900019D01*
X119285000Y-81002796D01*
X119285001Y-81002799D01*
X119287288Y-81009700D01*
X119340186Y-81169334D01*
X119432288Y-81318656D01*
X119556344Y-81442712D01*
X119705666Y-81534814D01*
X119872203Y-81589999D01*
X119974991Y-81600500D01*
X121375008Y-81600499D01*
X121477797Y-81589999D01*
X121536997Y-81570381D01*
X121606823Y-81567980D01*
X121666866Y-81603711D01*
X121698059Y-81666231D01*
X121700000Y-81688088D01*
X121700000Y-84911912D01*
X121680315Y-84978951D01*
X121627511Y-85024706D01*
X121558353Y-85034650D01*
X121536999Y-85029618D01*
X121477797Y-85010001D01*
X121477795Y-85010000D01*
X121375010Y-84999500D01*
X119974998Y-84999500D01*
X119974981Y-84999501D01*
X119872203Y-85010000D01*
X119872200Y-85010001D01*
X119705668Y-85065185D01*
X119705663Y-85065187D01*
X119556342Y-85157289D01*
X119432289Y-85281342D01*
X119340187Y-85430663D01*
X119340186Y-85430666D01*
X119285001Y-85597203D01*
X119285001Y-85597204D01*
X119285000Y-85597204D01*
X119274500Y-85699983D01*
X119274500Y-85984481D01*
X119254815Y-86051520D01*
X119202011Y-86097275D01*
X119132853Y-86107219D01*
X119069297Y-86078194D01*
X119062819Y-86072162D01*
X118110876Y-85120219D01*
X118077391Y-85058896D01*
X118074940Y-85022803D01*
X118075500Y-85015694D01*
X118075500Y-84584306D01*
X118072598Y-84547431D01*
X118072597Y-84547426D01*
X118070176Y-84539092D01*
X118070251Y-84512839D01*
X118066515Y-84486853D01*
X118070350Y-84478454D01*
X118070377Y-84469222D01*
X118084634Y-84447177D01*
X118095540Y-84423297D01*
X118103307Y-84418305D01*
X118108321Y-84410553D01*
X118132232Y-84399716D01*
X118154318Y-84385523D01*
X118167841Y-84383578D01*
X118171960Y-84381712D01*
X118189253Y-84380500D01*
X118325300Y-84380500D01*
X118392339Y-84400185D01*
X118394190Y-84401398D01*
X118456345Y-84442928D01*
X118456344Y-84442928D01*
X118474422Y-84450416D01*
X118588380Y-84497619D01*
X118588384Y-84497619D01*
X118588385Y-84497620D01*
X118728542Y-84525500D01*
X118728545Y-84525500D01*
X118871457Y-84525500D01*
X118975444Y-84504815D01*
X119011620Y-84497619D01*
X119143653Y-84442929D01*
X119262479Y-84363532D01*
X119363532Y-84262479D01*
X119442929Y-84143653D01*
X119497619Y-84011620D01*
X119519820Y-83900009D01*
X119525500Y-83871457D01*
X119525500Y-83728542D01*
X119497620Y-83588385D01*
X119497619Y-83588384D01*
X119497619Y-83588380D01*
X119442929Y-83456347D01*
X119442928Y-83456346D01*
X119442925Y-83456340D01*
X119384493Y-83368891D01*
X119363615Y-83302214D01*
X119382099Y-83234833D01*
X119384493Y-83231109D01*
X119442925Y-83143659D01*
X119442925Y-83143658D01*
X119442929Y-83143653D01*
X119497619Y-83011620D01*
X119518116Y-82908578D01*
X119525500Y-82871457D01*
X119525500Y-82728542D01*
X119497620Y-82588385D01*
X119497619Y-82588384D01*
X119497619Y-82588380D01*
X119442929Y-82456347D01*
X119442928Y-82456346D01*
X119442925Y-82456340D01*
X119363532Y-82337521D01*
X119363529Y-82337517D01*
X119262482Y-82236470D01*
X119262478Y-82236467D01*
X119143659Y-82157074D01*
X119143650Y-82157069D01*
X119011620Y-82102381D01*
X119011614Y-82102379D01*
X118871457Y-82074500D01*
X118871455Y-82074500D01*
X118728545Y-82074500D01*
X118728543Y-82074500D01*
X118588385Y-82102379D01*
X118588379Y-82102381D01*
X118456344Y-82157071D01*
X118394190Y-82198602D01*
X118376145Y-82204252D01*
X118360235Y-82214477D01*
X118329273Y-82218928D01*
X118327513Y-82219480D01*
X118325300Y-82219500D01*
X118188732Y-82219500D01*
X118121693Y-82199815D01*
X118075938Y-82147011D01*
X118065994Y-82077853D01*
X118069655Y-82060908D01*
X118072099Y-82052494D01*
X118072100Y-82052488D01*
X118072295Y-82050001D01*
X118072295Y-82050000D01*
X117709050Y-82050000D01*
X117674455Y-82045076D01*
X117527573Y-82002402D01*
X117527567Y-82002401D01*
X117490701Y-81999500D01*
X117490694Y-81999500D01*
X116109306Y-81999500D01*
X116109298Y-81999500D01*
X116072432Y-82002401D01*
X116072426Y-82002402D01*
X115925545Y-82045076D01*
X115890950Y-82050000D01*
X115527705Y-82050000D01*
X115527704Y-82050001D01*
X115527899Y-82052488D01*
X115527900Y-82052494D01*
X115573716Y-82210193D01*
X115573717Y-82210196D01*
X115589207Y-82236388D01*
X115606389Y-82304112D01*
X115589207Y-82362627D01*
X115573258Y-82389595D01*
X115573254Y-82389605D01*
X115527402Y-82547426D01*
X115527401Y-82547432D01*
X115524500Y-82584298D01*
X115524500Y-83015701D01*
X115527401Y-83052567D01*
X115527402Y-83052573D01*
X115573253Y-83210393D01*
X115588918Y-83236881D01*
X115606098Y-83304606D01*
X115588918Y-83363119D01*
X115573253Y-83389606D01*
X115527402Y-83547426D01*
X115527401Y-83547432D01*
X115524500Y-83584298D01*
X115524500Y-83975500D01*
X115504815Y-84042539D01*
X115452011Y-84088294D01*
X115400500Y-84099500D01*
X114970172Y-84099500D01*
X114903133Y-84079815D01*
X114857378Y-84027011D01*
X114852241Y-84013818D01*
X114839791Y-83975500D01*
X114790568Y-83824008D01*
X114683343Y-83613567D01*
X114544517Y-83422490D01*
X114377510Y-83255483D01*
X114186433Y-83116657D01*
X114153724Y-83099991D01*
X113975996Y-83009433D01*
X113751368Y-82936446D01*
X113518097Y-82899500D01*
X113518092Y-82899500D01*
X113281908Y-82899500D01*
X113281903Y-82899500D01*
X113048628Y-82936447D01*
X113048627Y-82936447D01*
X113029170Y-82942769D01*
X112959329Y-82944762D01*
X112903175Y-82912518D01*
X111761818Y-81771161D01*
X111747114Y-81744233D01*
X111730522Y-81718415D01*
X111729630Y-81712214D01*
X111728333Y-81709838D01*
X111725499Y-81683480D01*
X111725499Y-81549998D01*
X115527704Y-81549998D01*
X115527705Y-81550000D01*
X116550000Y-81550000D01*
X117050000Y-81550000D01*
X118072295Y-81550000D01*
X118072295Y-81549998D01*
X118072100Y-81547513D01*
X118026281Y-81389801D01*
X117942685Y-81248447D01*
X117942678Y-81248438D01*
X117826561Y-81132321D01*
X117826552Y-81132314D01*
X117685196Y-81048717D01*
X117685193Y-81048716D01*
X117527495Y-81002900D01*
X117527489Y-81002899D01*
X117490649Y-81000000D01*
X117050000Y-81000000D01*
X117050000Y-81550000D01*
X116550000Y-81550000D01*
X116550000Y-81000000D01*
X116109350Y-81000000D01*
X116072510Y-81002899D01*
X116072504Y-81002900D01*
X115914806Y-81048716D01*
X115914803Y-81048717D01*
X115773447Y-81132314D01*
X115773438Y-81132321D01*
X115657321Y-81248438D01*
X115657314Y-81248447D01*
X115573718Y-81389801D01*
X115527899Y-81547513D01*
X115527704Y-81549998D01*
X111725499Y-81549998D01*
X111725499Y-81112498D01*
X111725498Y-81112481D01*
X111714999Y-81009703D01*
X111714998Y-81009700D01*
X111678653Y-80900019D01*
X111659814Y-80843166D01*
X111567712Y-80693844D01*
X111443656Y-80569788D01*
X111294334Y-80477686D01*
X111127797Y-80422501D01*
X111127795Y-80422500D01*
X111025010Y-80412000D01*
X109974998Y-80412000D01*
X109974980Y-80412001D01*
X109872203Y-80422500D01*
X109872200Y-80422501D01*
X109705668Y-80477685D01*
X109705663Y-80477687D01*
X109556342Y-80569789D01*
X109432289Y-80693842D01*
X109403451Y-80740597D01*
X109395863Y-80747421D01*
X109391625Y-80756703D01*
X109370325Y-80770391D01*
X109351503Y-80787321D01*
X109339867Y-80789965D01*
X109332847Y-80794477D01*
X109297912Y-80799500D01*
X109202088Y-80799500D01*
X109135049Y-80779815D01*
X109096549Y-80740597D01*
X109067712Y-80693844D01*
X108943656Y-80569788D01*
X108794334Y-80477686D01*
X108627797Y-80422501D01*
X108627795Y-80422500D01*
X108525010Y-80412000D01*
X107474998Y-80412000D01*
X107474980Y-80412001D01*
X107372203Y-80422500D01*
X107372200Y-80422501D01*
X107205668Y-80477685D01*
X107205663Y-80477687D01*
X107056342Y-80569789D01*
X106932289Y-80693842D01*
X106903451Y-80740597D01*
X106895863Y-80747421D01*
X106891625Y-80756703D01*
X106870325Y-80770391D01*
X106851503Y-80787321D01*
X106839867Y-80789965D01*
X106832847Y-80794477D01*
X106797912Y-80799500D01*
X106684798Y-80799500D01*
X106617759Y-80779815D01*
X106579259Y-80740597D01*
X106542712Y-80681344D01*
X106418656Y-80557288D01*
X106325888Y-80500069D01*
X106269336Y-80465187D01*
X106269331Y-80465185D01*
X106267862Y-80464698D01*
X106102797Y-80410001D01*
X106102795Y-80410000D01*
X106000010Y-80399500D01*
X104999998Y-80399500D01*
X104999980Y-80399501D01*
X104897203Y-80410000D01*
X104897200Y-80410001D01*
X104730668Y-80465185D01*
X104730663Y-80465187D01*
X104581342Y-80557289D01*
X104457289Y-80681342D01*
X104365187Y-80830663D01*
X104365186Y-80830666D01*
X104310001Y-80997203D01*
X104310001Y-80997204D01*
X104310000Y-80997204D01*
X104299500Y-81099983D01*
X104299500Y-81900001D01*
X104299501Y-81900019D01*
X104310000Y-82002796D01*
X104310001Y-82002799D01*
X104365185Y-82169331D01*
X104365187Y-82169336D01*
X104383987Y-82199815D01*
X104448317Y-82304112D01*
X104457289Y-82318657D01*
X104550951Y-82412319D01*
X104584436Y-82473642D01*
X104579452Y-82543334D01*
X104550951Y-82587681D01*
X104457289Y-82681342D01*
X104365187Y-82830663D01*
X104365185Y-82830668D01*
X104344124Y-82894226D01*
X104310001Y-82997203D01*
X104310001Y-82997204D01*
X104310000Y-82997204D01*
X104299500Y-83099983D01*
X104299500Y-83900001D01*
X104299501Y-83900019D01*
X104310000Y-84002796D01*
X104310001Y-84002799D01*
X104365185Y-84169331D01*
X104365187Y-84169336D01*
X104382760Y-84197826D01*
X104457287Y-84318655D01*
X104457289Y-84318657D01*
X104544701Y-84406069D01*
X104578186Y-84467392D01*
X104573202Y-84537084D01*
X104544701Y-84581431D01*
X104432289Y-84693842D01*
X104340187Y-84843163D01*
X104340185Y-84843168D01*
X104338615Y-84847906D01*
X104285001Y-85009703D01*
X104285001Y-85009704D01*
X104285000Y-85009704D01*
X104274500Y-85112483D01*
X104274500Y-85887501D01*
X104274501Y-85887519D01*
X104285000Y-85990296D01*
X104285001Y-85990299D01*
X104305288Y-86051520D01*
X104340186Y-86156834D01*
X104432288Y-86306156D01*
X104556344Y-86430212D01*
X104559628Y-86432237D01*
X104559653Y-86432253D01*
X104561445Y-86434246D01*
X104562011Y-86434693D01*
X104561934Y-86434789D01*
X104606379Y-86484199D01*
X104617603Y-86553161D01*
X104589761Y-86617244D01*
X104559665Y-86643326D01*
X104556660Y-86645179D01*
X104556655Y-86645183D01*
X104432684Y-86769154D01*
X104340643Y-86918375D01*
X104340641Y-86918380D01*
X104285494Y-87084802D01*
X104285493Y-87084809D01*
X104275000Y-87187513D01*
X104275000Y-87325000D01*
X105376000Y-87325000D01*
X105443039Y-87344685D01*
X105488794Y-87397489D01*
X105500000Y-87449000D01*
X105500000Y-87575000D01*
X105626000Y-87575000D01*
X105693039Y-87594685D01*
X105738794Y-87647489D01*
X105750000Y-87699000D01*
X105750000Y-88662499D01*
X106024972Y-88662499D01*
X106024986Y-88662498D01*
X106127697Y-88652005D01*
X106294119Y-88596858D01*
X106294124Y-88596856D01*
X106443345Y-88504815D01*
X106507819Y-88440342D01*
X106569142Y-88406857D01*
X106638834Y-88411841D01*
X106694767Y-88453713D01*
X106719184Y-88519177D01*
X106719500Y-88528023D01*
X106719500Y-88825500D01*
X106699815Y-88892539D01*
X106647011Y-88938294D01*
X106595500Y-88949500D01*
X106152129Y-88949500D01*
X106152123Y-88949501D01*
X106092516Y-88955908D01*
X105949359Y-89009303D01*
X105948774Y-89007734D01*
X105890624Y-89020383D01*
X105850794Y-89008686D01*
X105850399Y-89009746D01*
X105707379Y-88956403D01*
X105707372Y-88956401D01*
X105647844Y-88950000D01*
X105350000Y-88950000D01*
X105350000Y-90850000D01*
X105647828Y-90850000D01*
X105647844Y-90849999D01*
X105707372Y-90843598D01*
X105707376Y-90843597D01*
X105850398Y-90790253D01*
X105850986Y-90791830D01*
X105874796Y-90786908D01*
X105908306Y-90779615D01*
X105909156Y-90779804D01*
X105909594Y-90779714D01*
X105912057Y-90780451D01*
X105944002Y-90787572D01*
X105955016Y-90791810D01*
X105957669Y-90793796D01*
X106039406Y-90824282D01*
X106040030Y-90824522D01*
X106067302Y-90845380D01*
X106094766Y-90865939D01*
X106094998Y-90866562D01*
X106095529Y-90866968D01*
X106107206Y-90899291D01*
X106119184Y-90931403D01*
X106119225Y-90932560D01*
X106119269Y-90932681D01*
X106119234Y-90932830D01*
X106119500Y-90940250D01*
X106119500Y-92959749D01*
X106099815Y-93026788D01*
X106047011Y-93072543D01*
X106038833Y-93075931D01*
X105949359Y-93109303D01*
X105948774Y-93107734D01*
X105890624Y-93120383D01*
X105850794Y-93108686D01*
X105850399Y-93109746D01*
X105707379Y-93056403D01*
X105707372Y-93056401D01*
X105647844Y-93050000D01*
X105350000Y-93050000D01*
X105350000Y-94950000D01*
X105647828Y-94950000D01*
X105647844Y-94949999D01*
X105707372Y-94943598D01*
X105707376Y-94943597D01*
X105850398Y-94890253D01*
X105851076Y-94892070D01*
X105908306Y-94879615D01*
X105949032Y-94891572D01*
X105949359Y-94890697D01*
X106092517Y-94944091D01*
X106092516Y-94944091D01*
X106099444Y-94944835D01*
X106152127Y-94950500D01*
X107247872Y-94950499D01*
X107307483Y-94944091D01*
X107432167Y-94897587D01*
X107501859Y-94892603D01*
X107563182Y-94926088D01*
X107596666Y-94987411D01*
X107599500Y-95013769D01*
X107599500Y-95797870D01*
X107599501Y-95797876D01*
X107605908Y-95857483D01*
X107656202Y-95992328D01*
X107656206Y-95992335D01*
X107742452Y-96107544D01*
X107742455Y-96107547D01*
X107857664Y-96193793D01*
X107857671Y-96193797D01*
X107992517Y-96244091D01*
X107992516Y-96244091D01*
X107999444Y-96244835D01*
X108052127Y-96250500D01*
X109947872Y-96250499D01*
X110007483Y-96244091D01*
X110142331Y-96193796D01*
X110257546Y-96107546D01*
X110343796Y-95992331D01*
X110392717Y-95861167D01*
X110434588Y-95805233D01*
X110500052Y-95780816D01*
X110508899Y-95780500D01*
X113691101Y-95780500D01*
X113758140Y-95800185D01*
X113803895Y-95852989D01*
X113807283Y-95861167D01*
X113856202Y-95992328D01*
X113856206Y-95992335D01*
X113942452Y-96107544D01*
X113942455Y-96107547D01*
X114057664Y-96193793D01*
X114057671Y-96193797D01*
X114192517Y-96244091D01*
X114192516Y-96244091D01*
X114199444Y-96244835D01*
X114252127Y-96250500D01*
X115878186Y-96250499D01*
X115945225Y-96270184D01*
X115965867Y-96286818D01*
X116453860Y-96774811D01*
X116487345Y-96836134D01*
X116487796Y-96838300D01*
X116502379Y-96911614D01*
X116502381Y-96911620D01*
X116557069Y-97043650D01*
X116557074Y-97043659D01*
X116636467Y-97162478D01*
X116636470Y-97162482D01*
X116737517Y-97263529D01*
X116737521Y-97263532D01*
X116856340Y-97342925D01*
X116856346Y-97342928D01*
X116856347Y-97342929D01*
X116988380Y-97397619D01*
X116988384Y-97397619D01*
X116988385Y-97397620D01*
X117128542Y-97425500D01*
X117128545Y-97425500D01*
X117271457Y-97425500D01*
X117365751Y-97406742D01*
X117411620Y-97397619D01*
X117543653Y-97342929D01*
X117662479Y-97263532D01*
X117763532Y-97162479D01*
X117842929Y-97043653D01*
X117897619Y-96911620D01*
X117908701Y-96855908D01*
X117925500Y-96771457D01*
X117925500Y-96628542D01*
X117897620Y-96488385D01*
X117897619Y-96488384D01*
X117897619Y-96488380D01*
X117842929Y-96356347D01*
X117842928Y-96356346D01*
X117842925Y-96356340D01*
X117763532Y-96237521D01*
X117763529Y-96237517D01*
X117662482Y-96136470D01*
X117662478Y-96136467D01*
X117543659Y-96057074D01*
X117543650Y-96057069D01*
X117411620Y-96002381D01*
X117411614Y-96002379D01*
X117338300Y-95987796D01*
X117276389Y-95955411D01*
X117274811Y-95953860D01*
X116636818Y-95315867D01*
X116603333Y-95254544D01*
X116600499Y-95228186D01*
X116600499Y-94602129D01*
X116600498Y-94602123D01*
X116594091Y-94542516D01*
X116543797Y-94407671D01*
X116543793Y-94407664D01*
X116457547Y-94292455D01*
X116457544Y-94292452D01*
X116342335Y-94206206D01*
X116342328Y-94206202D01*
X116207482Y-94155908D01*
X116199938Y-94154126D01*
X116200441Y-94151994D01*
X116146184Y-94129513D01*
X116106342Y-94072117D01*
X116100000Y-94032970D01*
X116100000Y-92666524D01*
X116119685Y-92599485D01*
X116172489Y-92553730D01*
X116200020Y-92546179D01*
X116199832Y-92545380D01*
X116207379Y-92543596D01*
X116342086Y-92493354D01*
X116342093Y-92493350D01*
X116457187Y-92407190D01*
X116457190Y-92407187D01*
X116543350Y-92292093D01*
X116543354Y-92292086D01*
X116593596Y-92157379D01*
X116593598Y-92157372D01*
X116599999Y-92097844D01*
X116600000Y-92097827D01*
X116600000Y-91750000D01*
X113800000Y-91750000D01*
X113800000Y-91926000D01*
X113780315Y-91993039D01*
X113727511Y-92038794D01*
X113676000Y-92050000D01*
X113100000Y-92050000D01*
X113100000Y-94495500D01*
X113080315Y-94562539D01*
X113027511Y-94608294D01*
X112976000Y-94619500D01*
X111224000Y-94619500D01*
X111156961Y-94599815D01*
X111111206Y-94547011D01*
X111100000Y-94495500D01*
X111100000Y-92050000D01*
X110524000Y-92050000D01*
X110456961Y-92030315D01*
X110411206Y-91977511D01*
X110400000Y-91926000D01*
X110400000Y-91750000D01*
X107600000Y-91750000D01*
X107600000Y-92097844D01*
X107606401Y-92157372D01*
X107606403Y-92157379D01*
X107656645Y-92292086D01*
X107656649Y-92292093D01*
X107742809Y-92407187D01*
X107742812Y-92407190D01*
X107857906Y-92493350D01*
X107857913Y-92493354D01*
X107992620Y-92543596D01*
X108000168Y-92545380D01*
X107999655Y-92547548D01*
X108053786Y-92569956D01*
X108093646Y-92627340D01*
X108100000Y-92666524D01*
X108100000Y-94032969D01*
X108080315Y-94100008D01*
X108027511Y-94145763D01*
X108017126Y-94149950D01*
X108003549Y-94154723D01*
X107992517Y-94155909D01*
X107866774Y-94202808D01*
X107865625Y-94203212D01*
X107831882Y-94204983D01*
X107798140Y-94207397D01*
X107797068Y-94206812D01*
X107795852Y-94206876D01*
X107766499Y-94190119D01*
X107736817Y-94173912D01*
X107736232Y-94172841D01*
X107735173Y-94172237D01*
X107719521Y-94142236D01*
X107703333Y-94112588D01*
X107703145Y-94110847D01*
X107702855Y-94110290D01*
X107702960Y-94109124D01*
X107700499Y-94086231D01*
X107700499Y-93502129D01*
X107700498Y-93502123D01*
X107694091Y-93442516D01*
X107643797Y-93307671D01*
X107643793Y-93307664D01*
X107557547Y-93192455D01*
X107557544Y-93192452D01*
X107442335Y-93106206D01*
X107442328Y-93106202D01*
X107361167Y-93075931D01*
X107305233Y-93034060D01*
X107280816Y-92968595D01*
X107280500Y-92959749D01*
X107280500Y-90940250D01*
X107286738Y-90919004D01*
X107288318Y-90896916D01*
X107296390Y-90886132D01*
X107300185Y-90873211D01*
X107316918Y-90858711D01*
X107330190Y-90840983D01*
X107349626Y-90830369D01*
X107352989Y-90827456D01*
X107361167Y-90824068D01*
X107432668Y-90797399D01*
X107502358Y-90792416D01*
X107563681Y-90825901D01*
X107597166Y-90887224D01*
X107600000Y-90913582D01*
X107600000Y-91250000D01*
X108750000Y-91250000D01*
X109250000Y-91250000D01*
X110400000Y-91250000D01*
X110400000Y-90902172D01*
X110399999Y-90902155D01*
X113800000Y-90902155D01*
X113800000Y-91250000D01*
X114950000Y-91250000D01*
X115450000Y-91250000D01*
X116600000Y-91250000D01*
X116600000Y-90902172D01*
X116599999Y-90902155D01*
X116593598Y-90842627D01*
X116593596Y-90842620D01*
X116543354Y-90707913D01*
X116543350Y-90707906D01*
X116457190Y-90592812D01*
X116457187Y-90592809D01*
X116342093Y-90506649D01*
X116342086Y-90506645D01*
X116207379Y-90456403D01*
X116207372Y-90456401D01*
X116147844Y-90450000D01*
X115450000Y-90450000D01*
X115450000Y-91250000D01*
X114950000Y-91250000D01*
X114950000Y-90450000D01*
X114252155Y-90450000D01*
X114192627Y-90456401D01*
X114192620Y-90456403D01*
X114057913Y-90506645D01*
X114057906Y-90506649D01*
X113942812Y-90592809D01*
X113942809Y-90592812D01*
X113856649Y-90707906D01*
X113856645Y-90707913D01*
X113806403Y-90842620D01*
X113806401Y-90842627D01*
X113800000Y-90902155D01*
X110399999Y-90902155D01*
X110393598Y-90842627D01*
X110393596Y-90842620D01*
X110343354Y-90707913D01*
X110343350Y-90707906D01*
X110257190Y-90592812D01*
X110257187Y-90592809D01*
X110142093Y-90506649D01*
X110142086Y-90506645D01*
X110007379Y-90456403D01*
X110007372Y-90456401D01*
X109947844Y-90450000D01*
X109250000Y-90450000D01*
X109250000Y-91250000D01*
X108750000Y-91250000D01*
X108750000Y-90450000D01*
X108052155Y-90450000D01*
X107992627Y-90456401D01*
X107992616Y-90456403D01*
X107867831Y-90502945D01*
X107798139Y-90507929D01*
X107736817Y-90474443D01*
X107703332Y-90413120D01*
X107700499Y-90386772D01*
X107700499Y-90075845D01*
X109452706Y-90075845D01*
X109581652Y-90129257D01*
X109581656Y-90129258D01*
X109736202Y-90159999D01*
X109736206Y-90160000D01*
X109893794Y-90160000D01*
X109893797Y-90159999D01*
X110048343Y-90129258D01*
X110048347Y-90129257D01*
X110177293Y-90075845D01*
X110852706Y-90075845D01*
X110981652Y-90129257D01*
X110981656Y-90129258D01*
X111136202Y-90159999D01*
X111136206Y-90160000D01*
X111293794Y-90160000D01*
X111293797Y-90159999D01*
X111448343Y-90129258D01*
X111448347Y-90129257D01*
X111577293Y-90075845D01*
X111215001Y-89713553D01*
X111215000Y-89713553D01*
X110852706Y-90075845D01*
X110177293Y-90075845D01*
X109815001Y-89713553D01*
X109815000Y-89713553D01*
X109452706Y-90075845D01*
X107700499Y-90075845D01*
X107700499Y-89771813D01*
X107720184Y-89704775D01*
X107736816Y-89684133D01*
X107764515Y-89656436D01*
X107840940Y-89524065D01*
X107880500Y-89376425D01*
X107880500Y-89375845D01*
X108752706Y-89375845D01*
X108881652Y-89429257D01*
X108881656Y-89429258D01*
X108937255Y-89440318D01*
X108999166Y-89472702D01*
X109033740Y-89533418D01*
X109034681Y-89537743D01*
X109045741Y-89593345D01*
X109045743Y-89593351D01*
X109099153Y-89722293D01*
X109461446Y-89360001D01*
X109461446Y-89359999D01*
X109431610Y-89330163D01*
X109665000Y-89330163D01*
X109665000Y-89389837D01*
X109687836Y-89444968D01*
X109730032Y-89487164D01*
X109785163Y-89510000D01*
X109844837Y-89510000D01*
X109899968Y-89487164D01*
X109942164Y-89444968D01*
X109965000Y-89389837D01*
X109965000Y-89360000D01*
X110168553Y-89360000D01*
X110515000Y-89706446D01*
X110515001Y-89706446D01*
X110861446Y-89360001D01*
X110861446Y-89359999D01*
X110831610Y-89330163D01*
X111065000Y-89330163D01*
X111065000Y-89389837D01*
X111087836Y-89444968D01*
X111130032Y-89487164D01*
X111185163Y-89510000D01*
X111244837Y-89510000D01*
X111299968Y-89487164D01*
X111342164Y-89444968D01*
X111365000Y-89389837D01*
X111365000Y-89360000D01*
X111568553Y-89360000D01*
X111930845Y-89722293D01*
X111984256Y-89593349D01*
X111984257Y-89593348D01*
X111995316Y-89537746D01*
X112027700Y-89475834D01*
X112088415Y-89441258D01*
X112092746Y-89440316D01*
X112148348Y-89429257D01*
X112148349Y-89429256D01*
X112277293Y-89375845D01*
X111915000Y-89013553D01*
X111568553Y-89360000D01*
X111365000Y-89360000D01*
X111365000Y-89330163D01*
X111342164Y-89275032D01*
X111299968Y-89232836D01*
X111244837Y-89210000D01*
X111185163Y-89210000D01*
X111130032Y-89232836D01*
X111087836Y-89275032D01*
X111065000Y-89330163D01*
X110831610Y-89330163D01*
X110515000Y-89013553D01*
X110168553Y-89360000D01*
X109965000Y-89360000D01*
X109965000Y-89330163D01*
X109942164Y-89275032D01*
X109899968Y-89232836D01*
X109844837Y-89210000D01*
X109785163Y-89210000D01*
X109730032Y-89232836D01*
X109687836Y-89275032D01*
X109665000Y-89330163D01*
X109431610Y-89330163D01*
X109271417Y-89169970D01*
X109115001Y-89013553D01*
X109115000Y-89013553D01*
X108752706Y-89375845D01*
X107880500Y-89375845D01*
X107880500Y-89223575D01*
X107880500Y-88581202D01*
X108315000Y-88581202D01*
X108315000Y-88738797D01*
X108345741Y-88893343D01*
X108345743Y-88893351D01*
X108399153Y-89022293D01*
X108761446Y-88660001D01*
X108761446Y-88659999D01*
X108731610Y-88630163D01*
X108965000Y-88630163D01*
X108965000Y-88689837D01*
X108987836Y-88744968D01*
X109030032Y-88787164D01*
X109085163Y-88810000D01*
X109144837Y-88810000D01*
X109199968Y-88787164D01*
X109242164Y-88744968D01*
X109265000Y-88689837D01*
X109265000Y-88660000D01*
X109468553Y-88660000D01*
X109628553Y-88820000D01*
X109815000Y-89006446D01*
X110001447Y-88820000D01*
X110161446Y-88660000D01*
X110161446Y-88659999D01*
X110131610Y-88630163D01*
X110365000Y-88630163D01*
X110365000Y-88689837D01*
X110387836Y-88744968D01*
X110430032Y-88787164D01*
X110485163Y-88810000D01*
X110544837Y-88810000D01*
X110599968Y-88787164D01*
X110642164Y-88744968D01*
X110665000Y-88689837D01*
X110665000Y-88660000D01*
X110868553Y-88660000D01*
X111028553Y-88820000D01*
X111215000Y-89006446D01*
X111401447Y-88820000D01*
X111561446Y-88660000D01*
X111561446Y-88659999D01*
X111531610Y-88630163D01*
X111765000Y-88630163D01*
X111765000Y-88689837D01*
X111787836Y-88744968D01*
X111830032Y-88787164D01*
X111885163Y-88810000D01*
X111944837Y-88810000D01*
X111999968Y-88787164D01*
X112042164Y-88744968D01*
X112065000Y-88689837D01*
X112065000Y-88659999D01*
X112268553Y-88659999D01*
X112268553Y-88660001D01*
X112630845Y-89022293D01*
X112684257Y-88893347D01*
X112684258Y-88893343D01*
X112714999Y-88738797D01*
X112715000Y-88738794D01*
X112715000Y-88581206D01*
X112714999Y-88581202D01*
X112684258Y-88426656D01*
X112684257Y-88426652D01*
X112630845Y-88297706D01*
X112268553Y-88659999D01*
X112065000Y-88659999D01*
X112065000Y-88630163D01*
X112042164Y-88575032D01*
X111999968Y-88532836D01*
X111944837Y-88510000D01*
X111885163Y-88510000D01*
X111830032Y-88532836D01*
X111787836Y-88575032D01*
X111765000Y-88630163D01*
X111531610Y-88630163D01*
X111215000Y-88313553D01*
X110868553Y-88660000D01*
X110665000Y-88660000D01*
X110665000Y-88630163D01*
X110642164Y-88575032D01*
X110599968Y-88532836D01*
X110544837Y-88510000D01*
X110485163Y-88510000D01*
X110430032Y-88532836D01*
X110387836Y-88575032D01*
X110365000Y-88630163D01*
X110131610Y-88630163D01*
X109815000Y-88313553D01*
X109468553Y-88660000D01*
X109265000Y-88660000D01*
X109265000Y-88630163D01*
X109242164Y-88575032D01*
X109199968Y-88532836D01*
X109144837Y-88510000D01*
X109085163Y-88510000D01*
X109030032Y-88532836D01*
X108987836Y-88575032D01*
X108965000Y-88630163D01*
X108731610Y-88630163D01*
X108399153Y-88297705D01*
X108345743Y-88426648D01*
X108345741Y-88426656D01*
X108315000Y-88581202D01*
X107880500Y-88581202D01*
X107880500Y-87960000D01*
X108768553Y-87960000D01*
X109115000Y-88306446D01*
X109115001Y-88306446D01*
X109288223Y-88133223D01*
X109461446Y-87960000D01*
X109461446Y-87959999D01*
X109431610Y-87930163D01*
X109665000Y-87930163D01*
X109665000Y-87989837D01*
X109687836Y-88044968D01*
X109730032Y-88087164D01*
X109785163Y-88110000D01*
X109844837Y-88110000D01*
X109899968Y-88087164D01*
X109942164Y-88044968D01*
X109965000Y-87989837D01*
X109965000Y-87960000D01*
X110168553Y-87960000D01*
X110341776Y-88133223D01*
X110515000Y-88306446D01*
X110515001Y-88306446D01*
X110688223Y-88133223D01*
X110861446Y-87960000D01*
X110861446Y-87959999D01*
X110831610Y-87930163D01*
X111065000Y-87930163D01*
X111065000Y-87989837D01*
X111087836Y-88044968D01*
X111130032Y-88087164D01*
X111185163Y-88110000D01*
X111244837Y-88110000D01*
X111299968Y-88087164D01*
X111342164Y-88044968D01*
X111365000Y-87989837D01*
X111365000Y-87960000D01*
X111568553Y-87960000D01*
X111741776Y-88133223D01*
X111915000Y-88306446D01*
X111915001Y-88306446D01*
X112261446Y-87960001D01*
X112261446Y-87959999D01*
X111915001Y-87613553D01*
X111915000Y-87613553D01*
X111568553Y-87960000D01*
X111365000Y-87960000D01*
X111365000Y-87930163D01*
X111342164Y-87875032D01*
X111299968Y-87832836D01*
X111244837Y-87810000D01*
X111185163Y-87810000D01*
X111130032Y-87832836D01*
X111087836Y-87875032D01*
X111065000Y-87930163D01*
X110831610Y-87930163D01*
X110515000Y-87613553D01*
X110168553Y-87960000D01*
X109965000Y-87960000D01*
X109965000Y-87930163D01*
X109942164Y-87875032D01*
X109899968Y-87832836D01*
X109844837Y-87810000D01*
X109785163Y-87810000D01*
X109730032Y-87832836D01*
X109687836Y-87875032D01*
X109665000Y-87930163D01*
X109431610Y-87930163D01*
X109115000Y-87613553D01*
X108768553Y-87960000D01*
X107880500Y-87960000D01*
X107880500Y-87181202D01*
X108315000Y-87181202D01*
X108315000Y-87338797D01*
X108345741Y-87493343D01*
X108345743Y-87493351D01*
X108399153Y-87622293D01*
X108761446Y-87260001D01*
X108761446Y-87259999D01*
X108731610Y-87230163D01*
X108965000Y-87230163D01*
X108965000Y-87289837D01*
X108987836Y-87344968D01*
X109030032Y-87387164D01*
X109085163Y-87410000D01*
X109144837Y-87410000D01*
X109199968Y-87387164D01*
X109242164Y-87344968D01*
X109265000Y-87289837D01*
X109265000Y-87260000D01*
X109468553Y-87260000D01*
X109641776Y-87433223D01*
X109815000Y-87606446D01*
X109815001Y-87606446D01*
X109988223Y-87433223D01*
X110161446Y-87260000D01*
X110161446Y-87259999D01*
X110131610Y-87230163D01*
X110365000Y-87230163D01*
X110365000Y-87289837D01*
X110387836Y-87344968D01*
X110430032Y-87387164D01*
X110485163Y-87410000D01*
X110544837Y-87410000D01*
X110599968Y-87387164D01*
X110642164Y-87344968D01*
X110665000Y-87289837D01*
X110665000Y-87260000D01*
X110868553Y-87260000D01*
X111041776Y-87433223D01*
X111215000Y-87606446D01*
X111215001Y-87606446D01*
X111388223Y-87433223D01*
X111561446Y-87260000D01*
X111561446Y-87259999D01*
X111531610Y-87230163D01*
X111765000Y-87230163D01*
X111765000Y-87289837D01*
X111787836Y-87344968D01*
X111830032Y-87387164D01*
X111885163Y-87410000D01*
X111944837Y-87410000D01*
X111999968Y-87387164D01*
X112042164Y-87344968D01*
X112065000Y-87289837D01*
X112065000Y-87259999D01*
X112268553Y-87259999D01*
X112268553Y-87260001D01*
X112630845Y-87622293D01*
X112684257Y-87493347D01*
X112684258Y-87493343D01*
X112714999Y-87338797D01*
X112715000Y-87338794D01*
X112715000Y-87181206D01*
X112714999Y-87181202D01*
X112684258Y-87026656D01*
X112684257Y-87026652D01*
X112630845Y-86897706D01*
X112268553Y-87259999D01*
X112065000Y-87259999D01*
X112065000Y-87230163D01*
X112042164Y-87175032D01*
X111999968Y-87132836D01*
X111944837Y-87110000D01*
X111885163Y-87110000D01*
X111830032Y-87132836D01*
X111787836Y-87175032D01*
X111765000Y-87230163D01*
X111531610Y-87230163D01*
X111215000Y-86913553D01*
X110868553Y-87260000D01*
X110665000Y-87260000D01*
X110665000Y-87230163D01*
X110642164Y-87175032D01*
X110599968Y-87132836D01*
X110544837Y-87110000D01*
X110485163Y-87110000D01*
X110430032Y-87132836D01*
X110387836Y-87175032D01*
X110365000Y-87230163D01*
X110131610Y-87230163D01*
X109815000Y-86913553D01*
X109468553Y-87260000D01*
X109265000Y-87260000D01*
X109265000Y-87230163D01*
X109242164Y-87175032D01*
X109199968Y-87132836D01*
X109144837Y-87110000D01*
X109085163Y-87110000D01*
X109030032Y-87132836D01*
X108987836Y-87175032D01*
X108965000Y-87230163D01*
X108731610Y-87230163D01*
X108399153Y-86897705D01*
X108345743Y-87026648D01*
X108345741Y-87026656D01*
X108315000Y-87181202D01*
X107880500Y-87181202D01*
X107880500Y-86544153D01*
X108752705Y-86544153D01*
X109115000Y-86906446D01*
X109115001Y-86906446D01*
X109288223Y-86733223D01*
X109461446Y-86560000D01*
X109461446Y-86559999D01*
X109431610Y-86530163D01*
X109665000Y-86530163D01*
X109665000Y-86589837D01*
X109687836Y-86644968D01*
X109730032Y-86687164D01*
X109785163Y-86710000D01*
X109844837Y-86710000D01*
X109899968Y-86687164D01*
X109942164Y-86644968D01*
X109965000Y-86589837D01*
X109965000Y-86560000D01*
X110168553Y-86560000D01*
X110341776Y-86733223D01*
X110515000Y-86906446D01*
X110515001Y-86906446D01*
X110688223Y-86733223D01*
X110861446Y-86560000D01*
X110861446Y-86559999D01*
X110831610Y-86530163D01*
X111065000Y-86530163D01*
X111065000Y-86589837D01*
X111087836Y-86644968D01*
X111130032Y-86687164D01*
X111185163Y-86710000D01*
X111244837Y-86710000D01*
X111299968Y-86687164D01*
X111342164Y-86644968D01*
X111365000Y-86589837D01*
X111365000Y-86559999D01*
X111568553Y-86559999D01*
X111568553Y-86560000D01*
X111741776Y-86733223D01*
X111915000Y-86906446D01*
X111915001Y-86906446D01*
X112277293Y-86544153D01*
X112148351Y-86490743D01*
X112148345Y-86490741D01*
X112092743Y-86479681D01*
X112030832Y-86447296D01*
X111996258Y-86386580D01*
X111995318Y-86382255D01*
X111984258Y-86326656D01*
X111984257Y-86326652D01*
X111930845Y-86197706D01*
X111568553Y-86559999D01*
X111365000Y-86559999D01*
X111365000Y-86530163D01*
X111342164Y-86475032D01*
X111299968Y-86432836D01*
X111244837Y-86410000D01*
X111185163Y-86410000D01*
X111130032Y-86432836D01*
X111087836Y-86475032D01*
X111065000Y-86530163D01*
X110831610Y-86530163D01*
X110515001Y-86213553D01*
X110515000Y-86213553D01*
X110168553Y-86560000D01*
X109965000Y-86560000D01*
X109965000Y-86530163D01*
X109942164Y-86475032D01*
X109899968Y-86432836D01*
X109844837Y-86410000D01*
X109785163Y-86410000D01*
X109730032Y-86432836D01*
X109687836Y-86475032D01*
X109665000Y-86530163D01*
X109431610Y-86530163D01*
X109099153Y-86197705D01*
X109045743Y-86326648D01*
X109045741Y-86326653D01*
X109034681Y-86382257D01*
X109002295Y-86444167D01*
X108941579Y-86478741D01*
X108937257Y-86479681D01*
X108881653Y-86490741D01*
X108881648Y-86490743D01*
X108752705Y-86544153D01*
X107880500Y-86544153D01*
X107880500Y-85844153D01*
X109452705Y-85844153D01*
X109815000Y-86206446D01*
X109815001Y-86206446D01*
X110177293Y-85844153D01*
X110852705Y-85844153D01*
X111215000Y-86206446D01*
X111215001Y-86206446D01*
X111577293Y-85844153D01*
X111448351Y-85790743D01*
X111448343Y-85790741D01*
X111293797Y-85760000D01*
X111136202Y-85760000D01*
X110981656Y-85790741D01*
X110981648Y-85790743D01*
X110852705Y-85844153D01*
X110177293Y-85844153D01*
X110048351Y-85790743D01*
X110048343Y-85790741D01*
X109893797Y-85760000D01*
X109736202Y-85760000D01*
X109581656Y-85790741D01*
X109581648Y-85790743D01*
X109452705Y-85844153D01*
X107880500Y-85844153D01*
X107880500Y-85723576D01*
X107874180Y-85699991D01*
X107840940Y-85575935D01*
X107764515Y-85443564D01*
X107356436Y-85035485D01*
X107356435Y-85035484D01*
X107224067Y-84959061D01*
X107224066Y-84959060D01*
X107187154Y-84949170D01*
X107150244Y-84939280D01*
X107150241Y-84939279D01*
X107119043Y-84930919D01*
X107076425Y-84919500D01*
X107076424Y-84919500D01*
X106774406Y-84919500D01*
X106707367Y-84899815D01*
X106662025Y-84847906D01*
X106659818Y-84843173D01*
X106659812Y-84843163D01*
X106567712Y-84693844D01*
X106455299Y-84581431D01*
X106421814Y-84520108D01*
X106426798Y-84450416D01*
X106455299Y-84406069D01*
X106497839Y-84363529D01*
X106542712Y-84318656D01*
X106615683Y-84200349D01*
X106667628Y-84153627D01*
X106736591Y-84142404D01*
X106800673Y-84170247D01*
X106838924Y-84226438D01*
X106840640Y-84231616D01*
X106840643Y-84231624D01*
X106932684Y-84380845D01*
X107056654Y-84504815D01*
X107205875Y-84596856D01*
X107205880Y-84596858D01*
X107372302Y-84652005D01*
X107372309Y-84652006D01*
X107475019Y-84662499D01*
X107749999Y-84662499D01*
X108250000Y-84662499D01*
X108524972Y-84662499D01*
X108524986Y-84662498D01*
X108627697Y-84652005D01*
X108794119Y-84596858D01*
X108794124Y-84596856D01*
X108943345Y-84504815D01*
X109067315Y-84380845D01*
X109144461Y-84255773D01*
X109196409Y-84209049D01*
X109265372Y-84197826D01*
X109329454Y-84225670D01*
X109355539Y-84255773D01*
X109432684Y-84380845D01*
X109556654Y-84504815D01*
X109705875Y-84596856D01*
X109705880Y-84596858D01*
X109872302Y-84652005D01*
X109872309Y-84652006D01*
X109975019Y-84662499D01*
X110249999Y-84662499D01*
X110250000Y-84662498D01*
X110250000Y-83825000D01*
X108250000Y-83825000D01*
X108250000Y-84662499D01*
X107749999Y-84662499D01*
X107750000Y-84662498D01*
X107750000Y-83699000D01*
X107769685Y-83631961D01*
X107822489Y-83586206D01*
X107874000Y-83575000D01*
X108000000Y-83575000D01*
X108000000Y-83449000D01*
X108019685Y-83381961D01*
X108072489Y-83336206D01*
X108124000Y-83325000D01*
X110376000Y-83325000D01*
X110443039Y-83344685D01*
X110488794Y-83397489D01*
X110500000Y-83449000D01*
X110500000Y-83575000D01*
X110626000Y-83575000D01*
X110693039Y-83594685D01*
X110738794Y-83647489D01*
X110750000Y-83699000D01*
X110750000Y-84662499D01*
X111024972Y-84662499D01*
X111024986Y-84662498D01*
X111127697Y-84652005D01*
X111294119Y-84596858D01*
X111294124Y-84596856D01*
X111443345Y-84504815D01*
X111567315Y-84380845D01*
X111659356Y-84231624D01*
X111662408Y-84225079D01*
X111664675Y-84226136D01*
X111697716Y-84178388D01*
X111762225Y-84151549D01*
X111831004Y-84163846D01*
X111882216Y-84211375D01*
X111899085Y-84277036D01*
X111899500Y-84277036D01*
X111899500Y-84278649D01*
X111899602Y-84279047D01*
X111899500Y-84280862D01*
X111899500Y-84518097D01*
X111936446Y-84751368D01*
X112009433Y-84975996D01*
X112116657Y-85186433D01*
X112255483Y-85377510D01*
X112422490Y-85544517D01*
X112613567Y-85683343D01*
X112646225Y-85699983D01*
X112824003Y-85790566D01*
X112824005Y-85790566D01*
X112824008Y-85790568D01*
X112944412Y-85829689D01*
X113048631Y-85863553D01*
X113281903Y-85900500D01*
X113281908Y-85900500D01*
X113518097Y-85900500D01*
X113751368Y-85863553D01*
X113975992Y-85790568D01*
X114186433Y-85683343D01*
X114377510Y-85544517D01*
X114385208Y-85536819D01*
X114446531Y-85503334D01*
X114472889Y-85500500D01*
X115794031Y-85500500D01*
X115857151Y-85517767D01*
X115914602Y-85551744D01*
X115956224Y-85563836D01*
X116072426Y-85597597D01*
X116072429Y-85597597D01*
X116072431Y-85597598D01*
X116109306Y-85600500D01*
X116558481Y-85600500D01*
X116625520Y-85620185D01*
X116646162Y-85636819D01*
X119763181Y-88753838D01*
X119796666Y-88815161D01*
X119799500Y-88841519D01*
X119799500Y-98469030D01*
X119782232Y-98532150D01*
X119748257Y-98589599D01*
X119748254Y-98589606D01*
X119702402Y-98747426D01*
X119702401Y-98747432D01*
X119699500Y-98784298D01*
X119699500Y-99940701D01*
X119702401Y-99977567D01*
X119702402Y-99977573D01*
X119748254Y-100135393D01*
X119748255Y-100135396D01*
X119831917Y-100276862D01*
X119836702Y-100283031D01*
X119835018Y-100284336D01*
X119863246Y-100336031D01*
X119858262Y-100405723D01*
X119826234Y-100453461D01*
X119800000Y-100477702D01*
X119800000Y-100743184D01*
X119782733Y-100806304D01*
X119748254Y-100864605D01*
X119748254Y-100864606D01*
X119702402Y-101022426D01*
X119702401Y-101022432D01*
X119699500Y-101059298D01*
X119699500Y-102215701D01*
X119702401Y-102252567D01*
X119702402Y-102252573D01*
X119748254Y-102410393D01*
X119748255Y-102410396D01*
X119748256Y-102410398D01*
X119782732Y-102468694D01*
X119800000Y-102531814D01*
X119800000Y-102797295D01*
X119805751Y-102802612D01*
X119854150Y-102812780D01*
X119903906Y-102861833D01*
X119919500Y-102922033D01*
X119919500Y-103387639D01*
X119899815Y-103454678D01*
X119847011Y-103500433D01*
X119814899Y-103510112D01*
X119648630Y-103536447D01*
X119424003Y-103609433D01*
X119213566Y-103716657D01*
X119177708Y-103742710D01*
X119022490Y-103855483D01*
X119022488Y-103855485D01*
X119022487Y-103855485D01*
X118855485Y-104022487D01*
X118855485Y-104022488D01*
X118855483Y-104022490D01*
X118847667Y-104033248D01*
X118716657Y-104213566D01*
X118609433Y-104424003D01*
X118536446Y-104648631D01*
X118499500Y-104881902D01*
X118499500Y-105118097D01*
X118536446Y-105351368D01*
X118609433Y-105575996D01*
X118716657Y-105786433D01*
X118855483Y-105977510D01*
X119022490Y-106144517D01*
X119213567Y-106283343D01*
X119327416Y-106341352D01*
X119373857Y-106365015D01*
X119424653Y-106412990D01*
X119441448Y-106480811D01*
X119418911Y-106546946D01*
X119364195Y-106590397D01*
X119317562Y-106599500D01*
X118203970Y-106599500D01*
X118136931Y-106579815D01*
X118091176Y-106527011D01*
X118081232Y-106457853D01*
X118100867Y-106406610D01*
X118116186Y-106383682D01*
X118116192Y-106383671D01*
X118191569Y-106201693D01*
X118191572Y-106201681D01*
X118229999Y-106008495D01*
X118230000Y-106008492D01*
X118230000Y-105610000D01*
X117480012Y-105610000D01*
X117480012Y-105110000D01*
X118230000Y-105110000D01*
X118230000Y-104711508D01*
X118229999Y-104711504D01*
X118191572Y-104518318D01*
X118191569Y-104518306D01*
X118116192Y-104336328D01*
X118116185Y-104336315D01*
X118006751Y-104172537D01*
X118006748Y-104172533D01*
X117867466Y-104033251D01*
X117867462Y-104033248D01*
X117703684Y-103923814D01*
X117703671Y-103923807D01*
X117521691Y-103848429D01*
X117521683Y-103848427D01*
X117480000Y-103840135D01*
X117480000Y-104795243D01*
X117441950Y-104703382D01*
X117371620Y-104633052D01*
X117279730Y-104594990D01*
X117180270Y-104594990D01*
X117088380Y-104633052D01*
X117018050Y-104703382D01*
X116980000Y-104795243D01*
X116980000Y-103840136D01*
X116979999Y-103840135D01*
X116938316Y-103848427D01*
X116938308Y-103848429D01*
X116756328Y-103923807D01*
X116756315Y-103923814D01*
X116592537Y-104033248D01*
X116458816Y-104166969D01*
X116397493Y-104200453D01*
X116346946Y-104200905D01*
X116339882Y-104199500D01*
X107739882Y-104199500D01*
X107660118Y-104199500D01*
X107660116Y-104199500D01*
X107653052Y-104200905D01*
X107583461Y-104194676D01*
X107541183Y-104166968D01*
X107407466Y-104033251D01*
X107407462Y-104033248D01*
X107243684Y-103923814D01*
X107243671Y-103923807D01*
X107061691Y-103848429D01*
X107061683Y-103848427D01*
X107020000Y-103840135D01*
X107020000Y-104795243D01*
X106981950Y-104703382D01*
X106911620Y-104633052D01*
X106819730Y-104594990D01*
X106720270Y-104594990D01*
X106628380Y-104633052D01*
X106558050Y-104703382D01*
X106520000Y-104795243D01*
X106520000Y-103792730D01*
X106539685Y-103725691D01*
X106556319Y-103705049D01*
X106642712Y-103618656D01*
X106734814Y-103469334D01*
X106769223Y-103365494D01*
X106808995Y-103308051D01*
X106873510Y-103281228D01*
X106886928Y-103280500D01*
X108913923Y-103280500D01*
X108913925Y-103280500D01*
X108987744Y-103260720D01*
X109061565Y-103240940D01*
X109193935Y-103164516D01*
X109302016Y-103056435D01*
X109896633Y-102461816D01*
X109957954Y-102428333D01*
X109984303Y-102425499D01*
X110384291Y-102425499D01*
X110451330Y-102445184D01*
X110497085Y-102497988D01*
X110500767Y-102507724D01*
X110557069Y-102643650D01*
X110557074Y-102643659D01*
X110636467Y-102762478D01*
X110636470Y-102762482D01*
X110737517Y-102863529D01*
X110737521Y-102863532D01*
X110856340Y-102942925D01*
X110856346Y-102942928D01*
X110856347Y-102942929D01*
X110988380Y-102997619D01*
X110988384Y-102997619D01*
X110988385Y-102997620D01*
X111128542Y-103025500D01*
X111128545Y-103025500D01*
X111271457Y-103025500D01*
X111365751Y-103006742D01*
X111411620Y-102997619D01*
X111543653Y-102942929D01*
X111543653Y-102942928D01*
X111543655Y-102942928D01*
X111605810Y-102901398D01*
X111672487Y-102880520D01*
X111674700Y-102880500D01*
X118013923Y-102880500D01*
X118013925Y-102880500D01*
X118087744Y-102860720D01*
X118161565Y-102840940D01*
X118234958Y-102798566D01*
X118242452Y-102795461D01*
X118269440Y-102792555D01*
X118295818Y-102786156D01*
X118308795Y-102788319D01*
X118311920Y-102787983D01*
X118314488Y-102789268D01*
X118324509Y-102790938D01*
X118347431Y-102797598D01*
X118384306Y-102800500D01*
X118384314Y-102800500D01*
X118815686Y-102800500D01*
X118815694Y-102800500D01*
X118852569Y-102797598D01*
X118852571Y-102797597D01*
X118852573Y-102797597D01*
X118894191Y-102785505D01*
X119010398Y-102751744D01*
X119011181Y-102751281D01*
X119012369Y-102750579D01*
X119014112Y-102750136D01*
X119017557Y-102748646D01*
X119017797Y-102749201D01*
X119080093Y-102733395D01*
X119132397Y-102748753D01*
X119132644Y-102748184D01*
X119137255Y-102750179D01*
X119138612Y-102750578D01*
X119139801Y-102751281D01*
X119139806Y-102751283D01*
X119297505Y-102797099D01*
X119297511Y-102797100D01*
X119299998Y-102797295D01*
X119300000Y-102797295D01*
X119300000Y-102531814D01*
X119317267Y-102468694D01*
X119351744Y-102410398D01*
X119397598Y-102252569D01*
X119400500Y-102215694D01*
X119400500Y-101059306D01*
X119397598Y-101022431D01*
X119391083Y-101000008D01*
X119351745Y-100864606D01*
X119351745Y-100864605D01*
X119351744Y-100864603D01*
X119351744Y-100864602D01*
X119317267Y-100806304D01*
X119300000Y-100743184D01*
X119300000Y-100477702D01*
X119273398Y-100453121D01*
X119237520Y-100393166D01*
X119239751Y-100323332D01*
X119264143Y-100283686D01*
X119262900Y-100282722D01*
X119267685Y-100276552D01*
X119351282Y-100135196D01*
X119351283Y-100135193D01*
X119397099Y-99977495D01*
X119397100Y-99977489D01*
X119399999Y-99940649D01*
X119400000Y-99940634D01*
X119400000Y-99612500D01*
X117800000Y-99612500D01*
X117800000Y-99940649D01*
X117802899Y-99977489D01*
X117802900Y-99977495D01*
X117848716Y-100135193D01*
X117848717Y-100135196D01*
X117932314Y-100276552D01*
X117932321Y-100276561D01*
X118048438Y-100392678D01*
X118048447Y-100392685D01*
X118048939Y-100392976D01*
X118049245Y-100393304D01*
X118054607Y-100397463D01*
X118053936Y-100398327D01*
X118096624Y-100444044D01*
X118109129Y-100512786D01*
X118082484Y-100577376D01*
X118054141Y-100601937D01*
X118054298Y-100602139D01*
X118050592Y-100605012D01*
X118048953Y-100606434D01*
X118048142Y-100606913D01*
X118048129Y-100606923D01*
X117931923Y-100723129D01*
X117931917Y-100723137D01*
X117848255Y-100864603D01*
X117848254Y-100864606D01*
X117802402Y-101022426D01*
X117802401Y-101022432D01*
X117799500Y-101059298D01*
X117799500Y-101565687D01*
X117790855Y-101595127D01*
X117784332Y-101625114D01*
X117780577Y-101630129D01*
X117779815Y-101632726D01*
X117763181Y-101653368D01*
X117733368Y-101683181D01*
X117672045Y-101716666D01*
X117645687Y-101719500D01*
X116911500Y-101719500D01*
X116844461Y-101699815D01*
X116798706Y-101647011D01*
X116787500Y-101595500D01*
X116787500Y-101450000D01*
X115824000Y-101450000D01*
X115756961Y-101430315D01*
X115711206Y-101377511D01*
X115700000Y-101326000D01*
X115700000Y-101200000D01*
X115574000Y-101200000D01*
X115506961Y-101180315D01*
X115461206Y-101127511D01*
X115450000Y-101076000D01*
X115450000Y-100950000D01*
X115950000Y-100950000D01*
X116787499Y-100950000D01*
X116787499Y-100675028D01*
X116787498Y-100675013D01*
X116777005Y-100572302D01*
X116721858Y-100405880D01*
X116721856Y-100405875D01*
X116629815Y-100256654D01*
X116505845Y-100132684D01*
X116356624Y-100040643D01*
X116356619Y-100040641D01*
X116190197Y-99985494D01*
X116190190Y-99985493D01*
X116087486Y-99975000D01*
X115950000Y-99975000D01*
X115950000Y-100950000D01*
X115450000Y-100950000D01*
X115450000Y-99975000D01*
X115312527Y-99975000D01*
X115312512Y-99975001D01*
X115209802Y-99985494D01*
X115043380Y-100040641D01*
X115043375Y-100040643D01*
X114894154Y-100132684D01*
X114770183Y-100256655D01*
X114770179Y-100256660D01*
X114768326Y-100259665D01*
X114766518Y-100261290D01*
X114765702Y-100262323D01*
X114765525Y-100262183D01*
X114716374Y-100306385D01*
X114647411Y-100317601D01*
X114583331Y-100289752D01*
X114557253Y-100259653D01*
X114557237Y-100259628D01*
X114555212Y-100256344D01*
X114431156Y-100132288D01*
X114288000Y-100043989D01*
X114281836Y-100040187D01*
X114281831Y-100040185D01*
X114280362Y-100039698D01*
X114115297Y-99985001D01*
X114115295Y-99985000D01*
X114012516Y-99974500D01*
X114012509Y-99974500D01*
X113636405Y-99974500D01*
X113612157Y-99967380D01*
X113587077Y-99964266D01*
X113579201Y-99957702D01*
X113569366Y-99954815D01*
X113552817Y-99935717D01*
X113533401Y-99919537D01*
X113528439Y-99907583D01*
X113523611Y-99902011D01*
X113518123Y-99887721D01*
X113516101Y-99881298D01*
X113497619Y-99788380D01*
X113452854Y-99680309D01*
X113451220Y-99675115D01*
X113450647Y-99645415D01*
X113447472Y-99615878D01*
X113449982Y-99610863D01*
X113449874Y-99605258D01*
X113465448Y-99579964D01*
X113478747Y-99553398D01*
X113485595Y-99547245D01*
X113486509Y-99545763D01*
X113488093Y-99545001D01*
X113495192Y-99538626D01*
X113537191Y-99507185D01*
X113623350Y-99392093D01*
X113623354Y-99392086D01*
X113673596Y-99257379D01*
X113673598Y-99257372D01*
X113679999Y-99197844D01*
X113680000Y-99197827D01*
X113680000Y-99050000D01*
X112954000Y-99050000D01*
X112945314Y-99047449D01*
X112936353Y-99048738D01*
X112912312Y-99037759D01*
X112886961Y-99030315D01*
X112881033Y-99023474D01*
X112872797Y-99019713D01*
X112858507Y-98997478D01*
X112841206Y-98977511D01*
X112838918Y-98966996D01*
X112835023Y-98960935D01*
X112830000Y-98926000D01*
X112830000Y-98784350D01*
X117800000Y-98784350D01*
X117800000Y-99112500D01*
X118350000Y-99112500D01*
X118850000Y-99112500D01*
X119400000Y-99112500D01*
X119400000Y-98784365D01*
X119399999Y-98784350D01*
X119397100Y-98747510D01*
X119397099Y-98747504D01*
X119351283Y-98589806D01*
X119351282Y-98589803D01*
X119267685Y-98448447D01*
X119267678Y-98448438D01*
X119151561Y-98332321D01*
X119151552Y-98332314D01*
X119010196Y-98248717D01*
X119010193Y-98248716D01*
X118852494Y-98202900D01*
X118852497Y-98202900D01*
X118850000Y-98202703D01*
X118850000Y-99112500D01*
X118350000Y-99112500D01*
X118350000Y-98202703D01*
X118347503Y-98202900D01*
X118189806Y-98248716D01*
X118189803Y-98248717D01*
X118048447Y-98332314D01*
X118048438Y-98332321D01*
X117932321Y-98448438D01*
X117932314Y-98448447D01*
X117848717Y-98589803D01*
X117848716Y-98589806D01*
X117802900Y-98747504D01*
X117802899Y-98747510D01*
X117800000Y-98784350D01*
X112830000Y-98784350D01*
X112830000Y-98674499D01*
X112849685Y-98607460D01*
X112902489Y-98561705D01*
X112954000Y-98550499D01*
X113227871Y-98550499D01*
X113227872Y-98550499D01*
X113227872Y-98550498D01*
X113231196Y-98550321D01*
X113231201Y-98550426D01*
X113239163Y-98550000D01*
X113680000Y-98550000D01*
X113680000Y-98402172D01*
X113679999Y-98402155D01*
X113673598Y-98342627D01*
X113655479Y-98294048D01*
X113650495Y-98224356D01*
X113655476Y-98207391D01*
X113674091Y-98157483D01*
X113680500Y-98097873D01*
X113680499Y-97302128D01*
X113674091Y-97242517D01*
X113658786Y-97201483D01*
X113623797Y-97107671D01*
X113623793Y-97107664D01*
X113537547Y-96992455D01*
X113537544Y-96992452D01*
X113422335Y-96906206D01*
X113422328Y-96906202D01*
X113287482Y-96855908D01*
X113287483Y-96855908D01*
X113227883Y-96849501D01*
X113227881Y-96849500D01*
X113227873Y-96849500D01*
X113227864Y-96849500D01*
X112432129Y-96849500D01*
X112432123Y-96849501D01*
X112372516Y-96855908D01*
X112237671Y-96906202D01*
X112237664Y-96906206D01*
X112122455Y-96992452D01*
X112122452Y-96992455D01*
X112036206Y-97107664D01*
X112036203Y-97107670D01*
X112031182Y-97121133D01*
X111989310Y-97177066D01*
X111923846Y-97201483D01*
X111855573Y-97186631D01*
X111806168Y-97137225D01*
X111798818Y-97121133D01*
X111796765Y-97115629D01*
X111793796Y-97107669D01*
X111793794Y-97107666D01*
X111793793Y-97107664D01*
X111707547Y-96992455D01*
X111707544Y-96992452D01*
X111592335Y-96906206D01*
X111592328Y-96906202D01*
X111457482Y-96855908D01*
X111457483Y-96855908D01*
X111397883Y-96849501D01*
X111397881Y-96849500D01*
X111397873Y-96849500D01*
X111397864Y-96849500D01*
X110602129Y-96849500D01*
X110602123Y-96849501D01*
X110542516Y-96855908D01*
X110407671Y-96906202D01*
X110407664Y-96906206D01*
X110292455Y-96992452D01*
X110292452Y-96992455D01*
X110206206Y-97107664D01*
X110206202Y-97107671D01*
X110155908Y-97242517D01*
X110149501Y-97302116D01*
X110149501Y-97302123D01*
X110149500Y-97302135D01*
X110149501Y-98095500D01*
X110129817Y-98162539D01*
X110077013Y-98208294D01*
X110025501Y-98219500D01*
X109091812Y-98219500D01*
X109024773Y-98199815D01*
X109004131Y-98183181D01*
X107046138Y-96225187D01*
X107012653Y-96163864D01*
X107012226Y-96161818D01*
X106997619Y-96088380D01*
X106942929Y-95956347D01*
X106942928Y-95956346D01*
X106942925Y-95956340D01*
X106863532Y-95837521D01*
X106863529Y-95837517D01*
X106762482Y-95736470D01*
X106762478Y-95736467D01*
X106643659Y-95657074D01*
X106643650Y-95657069D01*
X106511620Y-95602381D01*
X106511614Y-95602379D01*
X106371457Y-95574500D01*
X106371455Y-95574500D01*
X106228545Y-95574500D01*
X106228543Y-95574500D01*
X106088385Y-95602379D01*
X106088379Y-95602381D01*
X105956349Y-95657069D01*
X105956340Y-95657074D01*
X105837521Y-95736467D01*
X105837517Y-95736470D01*
X105736470Y-95837517D01*
X105736467Y-95837521D01*
X105657074Y-95956340D01*
X105657069Y-95956349D01*
X105602381Y-96088379D01*
X105602379Y-96088385D01*
X105574500Y-96228542D01*
X105574500Y-96228545D01*
X105574500Y-96371455D01*
X105574500Y-96371457D01*
X105574499Y-96371457D01*
X105602379Y-96511614D01*
X105602381Y-96511620D01*
X105657069Y-96643650D01*
X105657074Y-96643659D01*
X105736467Y-96762478D01*
X105736470Y-96762482D01*
X105837517Y-96863529D01*
X105837521Y-96863532D01*
X105956340Y-96942925D01*
X105956346Y-96942928D01*
X105956347Y-96942929D01*
X106088380Y-96997619D01*
X106161698Y-97012202D01*
X106223607Y-97044585D01*
X106225187Y-97046138D01*
X108331143Y-99152093D01*
X108331153Y-99152104D01*
X108335483Y-99156434D01*
X108335484Y-99156435D01*
X108443565Y-99264516D01*
X108575935Y-99340940D01*
X108607882Y-99349500D01*
X108723575Y-99380500D01*
X108723576Y-99380500D01*
X109709398Y-99380500D01*
X109776437Y-99400185D01*
X109822192Y-99452989D01*
X109832136Y-99522147D01*
X109812500Y-99573391D01*
X109757074Y-99656340D01*
X109757069Y-99656349D01*
X109702381Y-99788379D01*
X109702379Y-99788385D01*
X109674500Y-99928542D01*
X109674500Y-99974781D01*
X109654815Y-100041820D01*
X109615597Y-100080319D01*
X109531347Y-100132285D01*
X109531343Y-100132288D01*
X109407288Y-100256343D01*
X109407283Y-100256349D01*
X109405241Y-100259661D01*
X109403247Y-100261453D01*
X109402807Y-100262011D01*
X109402711Y-100261935D01*
X109353291Y-100306383D01*
X109284328Y-100317602D01*
X109220247Y-100289755D01*
X109194168Y-100259656D01*
X109192319Y-100256659D01*
X109192316Y-100256655D01*
X109068345Y-100132684D01*
X108919124Y-100040643D01*
X108919119Y-100040641D01*
X108752697Y-99985494D01*
X108752690Y-99985493D01*
X108649986Y-99975000D01*
X108512500Y-99975000D01*
X108512500Y-101076000D01*
X108492815Y-101143039D01*
X108440011Y-101188794D01*
X108388500Y-101200000D01*
X108262500Y-101200000D01*
X108262500Y-101326000D01*
X108242815Y-101393039D01*
X108190011Y-101438794D01*
X108138500Y-101450000D01*
X107175001Y-101450000D01*
X107175001Y-101724986D01*
X107185494Y-101827697D01*
X107228174Y-101956496D01*
X107229153Y-101984960D01*
X107233206Y-102013147D01*
X107230338Y-102019425D01*
X107230576Y-102026324D01*
X107216012Y-102050795D01*
X107204181Y-102076703D01*
X107198373Y-102080435D01*
X107194844Y-102086366D01*
X107169361Y-102099079D01*
X107145403Y-102114477D01*
X107135707Y-102115871D01*
X107132324Y-102117559D01*
X107110468Y-102119500D01*
X106886928Y-102119500D01*
X106819889Y-102099815D01*
X106774134Y-102047011D01*
X106769225Y-102034513D01*
X106734814Y-101930666D01*
X106642712Y-101781344D01*
X106549049Y-101687681D01*
X106515564Y-101626358D01*
X106520548Y-101556666D01*
X106549049Y-101512319D01*
X106594320Y-101467048D01*
X106642712Y-101418656D01*
X106734814Y-101269334D01*
X106789999Y-101102797D01*
X106800500Y-101000009D01*
X106800499Y-100675013D01*
X107175000Y-100675013D01*
X107175000Y-100950000D01*
X108012500Y-100950000D01*
X108012500Y-99975000D01*
X107875027Y-99975000D01*
X107875012Y-99975001D01*
X107772302Y-99985494D01*
X107605880Y-100040641D01*
X107605875Y-100040643D01*
X107456654Y-100132684D01*
X107332684Y-100256654D01*
X107240643Y-100405875D01*
X107240641Y-100405880D01*
X107185494Y-100572302D01*
X107185493Y-100572309D01*
X107175000Y-100675013D01*
X106800499Y-100675013D01*
X106800499Y-100500000D01*
X106800499Y-99999998D01*
X106800498Y-99999980D01*
X106789999Y-99897203D01*
X106789998Y-99897200D01*
X106753940Y-99788385D01*
X106734814Y-99730666D01*
X106642712Y-99581344D01*
X106560761Y-99499393D01*
X106527276Y-99438070D01*
X106526716Y-99434514D01*
X106526689Y-99434520D01*
X106497620Y-99288385D01*
X106497619Y-99288384D01*
X106497619Y-99288380D01*
X106455318Y-99186258D01*
X106442930Y-99156349D01*
X106442925Y-99156340D01*
X106363532Y-99037521D01*
X106363529Y-99037517D01*
X106262482Y-98936470D01*
X106262478Y-98936467D01*
X106143659Y-98857074D01*
X106143650Y-98857069D01*
X106011620Y-98802381D01*
X106011614Y-98802379D01*
X105871457Y-98774500D01*
X105871455Y-98774500D01*
X105728545Y-98774500D01*
X105728543Y-98774500D01*
X105588385Y-98802379D01*
X105588379Y-98802381D01*
X105456349Y-98857069D01*
X105456340Y-98857074D01*
X105337521Y-98936467D01*
X105337517Y-98936470D01*
X105236470Y-99037517D01*
X105236467Y-99037521D01*
X105157074Y-99156340D01*
X105157069Y-99156349D01*
X105108361Y-99273941D01*
X105102382Y-99288379D01*
X105100050Y-99294008D01*
X105098303Y-99293284D01*
X105064804Y-99344367D01*
X105036885Y-99362285D01*
X105030672Y-99365182D01*
X104881342Y-99457289D01*
X104787681Y-99550951D01*
X104726358Y-99584436D01*
X104656666Y-99579452D01*
X104612319Y-99550951D01*
X104518657Y-99457289D01*
X104518656Y-99457288D01*
X104384402Y-99374480D01*
X104337679Y-99322533D01*
X104325500Y-99268942D01*
X104325500Y-99228542D01*
X104297620Y-99088385D01*
X104297619Y-99088384D01*
X104297619Y-99088380D01*
X104247340Y-98966996D01*
X104242930Y-98956349D01*
X104242925Y-98956340D01*
X104163532Y-98837521D01*
X104163529Y-98837517D01*
X104062482Y-98736470D01*
X104062478Y-98736467D01*
X103943659Y-98657074D01*
X103943650Y-98657069D01*
X103811620Y-98602381D01*
X103811614Y-98602379D01*
X103671457Y-98574500D01*
X103671455Y-98574500D01*
X103528545Y-98574500D01*
X103528543Y-98574500D01*
X103388385Y-98602379D01*
X103388379Y-98602381D01*
X103256349Y-98657069D01*
X103256340Y-98657074D01*
X103137521Y-98736467D01*
X103137517Y-98736470D01*
X103036470Y-98837517D01*
X103036467Y-98837521D01*
X102957074Y-98956340D01*
X102957069Y-98956349D01*
X102902381Y-99088379D01*
X102902379Y-99088385D01*
X102874500Y-99228542D01*
X102874500Y-99371453D01*
X102876946Y-99383751D01*
X102870717Y-99453342D01*
X102843010Y-99495622D01*
X102757287Y-99581345D01*
X102665187Y-99730663D01*
X102665185Y-99730668D01*
X102654718Y-99762255D01*
X102610001Y-99897203D01*
X102610001Y-99897204D01*
X102610000Y-99897204D01*
X102599500Y-99999983D01*
X102599500Y-101000001D01*
X102599501Y-101000019D01*
X102610000Y-101102796D01*
X102610001Y-101102799D01*
X102642211Y-101200000D01*
X102665186Y-101269334D01*
X102741487Y-101393039D01*
X102757289Y-101418657D01*
X102850951Y-101512319D01*
X102884436Y-101573642D01*
X102879452Y-101643334D01*
X102850951Y-101687681D01*
X102757289Y-101781342D01*
X102665187Y-101930663D01*
X102665186Y-101930666D01*
X102610001Y-102097203D01*
X102610001Y-102097204D01*
X102610000Y-102097204D01*
X102599500Y-102199983D01*
X102599500Y-103200001D01*
X102599501Y-103200019D01*
X102610000Y-103302796D01*
X102610001Y-103302799D01*
X102630777Y-103365496D01*
X102665186Y-103469334D01*
X102757288Y-103618656D01*
X102881344Y-103742712D01*
X103030666Y-103834814D01*
X103197203Y-103889999D01*
X103299991Y-103900500D01*
X104100008Y-103900499D01*
X104100016Y-103900498D01*
X104100019Y-103900498D01*
X104156302Y-103894748D01*
X104202797Y-103889999D01*
X104369334Y-103834814D01*
X104518656Y-103742712D01*
X104612319Y-103649049D01*
X104673642Y-103615564D01*
X104743334Y-103620548D01*
X104787681Y-103649049D01*
X104881344Y-103742712D01*
X105030666Y-103834814D01*
X105197203Y-103889999D01*
X105299991Y-103900500D01*
X105965923Y-103900499D01*
X106032962Y-103920183D01*
X106078717Y-103972987D01*
X106088661Y-104042146D01*
X106059636Y-104105702D01*
X106053605Y-104112180D01*
X105993248Y-104172537D01*
X105883814Y-104336315D01*
X105883807Y-104336328D01*
X105808430Y-104518306D01*
X105808427Y-104518318D01*
X105770000Y-104711504D01*
X105770000Y-105110000D01*
X106519988Y-105110000D01*
X106519988Y-105610000D01*
X105770000Y-105610000D01*
X105770000Y-106008495D01*
X105808427Y-106201681D01*
X105808430Y-106201693D01*
X105883807Y-106383671D01*
X105883813Y-106383682D01*
X105899133Y-106406610D01*
X105920010Y-106473288D01*
X105901525Y-106540668D01*
X105849546Y-106587357D01*
X105796030Y-106599500D01*
X102424000Y-106599500D01*
X102356961Y-106579815D01*
X102311206Y-106527011D01*
X102300000Y-106475500D01*
X102300000Y-94497844D01*
X104100000Y-94497844D01*
X104106401Y-94557372D01*
X104106403Y-94557379D01*
X104156645Y-94692086D01*
X104156649Y-94692093D01*
X104242809Y-94807187D01*
X104242812Y-94807190D01*
X104357906Y-94893350D01*
X104357913Y-94893354D01*
X104492620Y-94943596D01*
X104492627Y-94943598D01*
X104552155Y-94949999D01*
X104552172Y-94950000D01*
X104850000Y-94950000D01*
X104850000Y-94250000D01*
X104100000Y-94250000D01*
X104100000Y-94497844D01*
X102300000Y-94497844D01*
X102300000Y-93502155D01*
X104100000Y-93502155D01*
X104100000Y-93750000D01*
X104850000Y-93750000D01*
X104850000Y-93050000D01*
X104552155Y-93050000D01*
X104492627Y-93056401D01*
X104492620Y-93056403D01*
X104357913Y-93106645D01*
X104357906Y-93106649D01*
X104242812Y-93192809D01*
X104242809Y-93192812D01*
X104156649Y-93307906D01*
X104156645Y-93307913D01*
X104106403Y-93442620D01*
X104106401Y-93442627D01*
X104100000Y-93502155D01*
X102300000Y-93502155D01*
X102300000Y-90397844D01*
X104100000Y-90397844D01*
X104106401Y-90457372D01*
X104106403Y-90457379D01*
X104156645Y-90592086D01*
X104156649Y-90592093D01*
X104242809Y-90707187D01*
X104242812Y-90707190D01*
X104357906Y-90793350D01*
X104357913Y-90793354D01*
X104492620Y-90843596D01*
X104492627Y-90843598D01*
X104552155Y-90849999D01*
X104552172Y-90850000D01*
X104850000Y-90850000D01*
X104850000Y-90150000D01*
X104100000Y-90150000D01*
X104100000Y-90397844D01*
X102300000Y-90397844D01*
X102300000Y-89402155D01*
X104100000Y-89402155D01*
X104100000Y-89650000D01*
X104850000Y-89650000D01*
X104850000Y-88950000D01*
X104552155Y-88950000D01*
X104492627Y-88956401D01*
X104492620Y-88956403D01*
X104357913Y-89006645D01*
X104357906Y-89006649D01*
X104242812Y-89092809D01*
X104242809Y-89092812D01*
X104156649Y-89207906D01*
X104156645Y-89207913D01*
X104106403Y-89342620D01*
X104106401Y-89342627D01*
X104100000Y-89402155D01*
X102300000Y-89402155D01*
X102300000Y-87962486D01*
X104275001Y-87962486D01*
X104285494Y-88065197D01*
X104340641Y-88231619D01*
X104340643Y-88231624D01*
X104432684Y-88380845D01*
X104556654Y-88504815D01*
X104705875Y-88596856D01*
X104705880Y-88596858D01*
X104872302Y-88652005D01*
X104872309Y-88652006D01*
X104975019Y-88662499D01*
X105249999Y-88662499D01*
X105250000Y-88662498D01*
X105250000Y-87825000D01*
X104275001Y-87825000D01*
X104275001Y-87962486D01*
X102300000Y-87962486D01*
X102300000Y-79424000D01*
X102319685Y-79356961D01*
X102372489Y-79311206D01*
X102424000Y-79300000D01*
X119536236Y-79300000D01*
X119603275Y-79319685D01*
G37*
%TD.AperFunction*%
%TD*%
M02*
