M48
; DRILL file {KiCad 9.0.6} date 2026-03-20T20:15:53-0600
; FORMAT={-:-/ absolute / metric / decimal}
; #@! TF.CreationDate,2026-03-20T20:15:53-06:00
; #@! TF.GenerationSoftware,Kicad,Pcbnew,9.0.6
; #@! TF.FileFunction,Plated,1,2,PTH
FMAT,2
METRIC
; #@! TA.AperFunction,Plated,PTH,ViaDrill
T1C0.300
; #@! TA.AperFunction,Plated,PTH,ComponentDrill
T2C0.300
; #@! TA.AperFunction,Plated,PTH,ComponentDrill
T3C0.500
%
G90
G05
T1
X103.5Y-105.5
X103.6Y-99.3
X103.7Y-102.7
X104.9Y-80.2
X105.5Y-81.5
X105.5Y-83.5
X105.8Y-99.5
X106.3Y-96.3
X110.4Y-100.0
X111.2Y-102.3
X112.8Y-100.0
X117.2Y-96.7
X117.3Y-103.4
X118.6Y-101.637
X118.8Y-82.8
X118.8Y-83.8
X119.2Y-80.2
X120.5Y-101.637
T2
X109.115Y-87.26
X109.115Y-88.66
X109.815Y-86.56
X109.815Y-87.96
X109.815Y-89.36
X110.515Y-87.26
X110.515Y-88.66
X111.215Y-86.56
X111.215Y-87.96
X111.215Y-89.36
X111.915Y-87.26
X111.915Y-88.66
T3
G00X106.77Y-104.845
M15
G01X106.77Y-105.875
M16
G05
G00X117.23Y-104.845
M15
G01X117.23Y-105.875
M16
G05
M30
