%TF.GenerationSoftware,KiCad,Pcbnew,9.0.6*%
%TF.CreationDate,2026-03-20T20:15:30-06:00*%
%TF.ProjectId,ToothPaste_V1_USB_C,546f6f74-6850-4617-9374-655f56315f55,rev?*%
%TF.SameCoordinates,Original*%
%TF.FileFunction,Legend,Bot*%
%TF.FilePolarity,Positive*%
%FSLAX46Y46*%
G04 Gerber Fmt 4.6, Leading zero omitted, Abs format (unit mm)*
G04 Created by KiCad (PCBNEW 9.0.6) date 2026-03-20 20:15:30*
%MOMM*%
%LPD*%
G01*
G04 APERTURE LIST*
G04 Aperture macros list*
%AMRoundRect*
0 Rectangle with rounded corners*
0 $1 Rounding radius*
0 $2 $3 $4 $5 $6 $7 $8 $9 X,Y pos of 4 corners*
0 Add a 4 corners polygon primitive as box body*
4,1,4,$2,$3,$4,$5,$6,$7,$8,$9,$2,$3,0*
0 Add four circle primitives for the rounded corners*
1,1,$1+$1,$2,$3*
1,1,$1+$1,$4,$5*
1,1,$1+$1,$6,$7*
1,1,$1+$1,$8,$9*
0 Add four rect primitives between the rounded corners*
20,1,$1+$1,$2,$3,$4,$5,0*
20,1,$1+$1,$4,$5,$6,$7,0*
20,1,$1+$1,$6,$7,$8,$9,0*
20,1,$1+$1,$8,$9,$2,$3,0*%
G04 Aperture macros list end*
%ADD10C,0.150000*%
%ADD11C,0.120000*%
%ADD12O,1.000000X2.100000*%
%ADD13RoundRect,0.250000X-0.450000X0.350000X-0.450000X-0.350000X0.450000X-0.350000X0.450000X0.350000X0*%
%ADD14RoundRect,0.250000X-0.350000X-0.450000X0.350000X-0.450000X0.350000X0.450000X-0.350000X0.450000X0*%
%ADD15RoundRect,0.250000X-0.475000X0.337500X-0.475000X-0.337500X0.475000X-0.337500X0.475000X0.337500X0*%
%ADD16R,0.700000X0.700000*%
%ADD17RoundRect,0.150000X-0.625000X0.150000X-0.625000X-0.150000X0.625000X-0.150000X0.625000X0.150000X0*%
%ADD18RoundRect,0.250000X-0.650000X0.350000X-0.650000X-0.350000X0.650000X-0.350000X0.650000X0.350000X0*%
%ADD19R,1.000000X0.900000*%
%ADD20RoundRect,0.250000X0.475000X-0.337500X0.475000X0.337500X-0.475000X0.337500X-0.475000X-0.337500X0*%
%ADD21RoundRect,0.250000X0.337500X0.475000X-0.337500X0.475000X-0.337500X-0.475000X0.337500X-0.475000X0*%
%ADD22C,2.000000*%
%ADD23R,1.800000X1.100000*%
%ADD24RoundRect,0.150000X0.150000X-0.512500X0.150000X0.512500X-0.150000X0.512500X-0.150000X-0.512500X0*%
%ADD25RoundRect,0.250000X-0.337500X-0.475000X0.337500X-0.475000X0.337500X0.475000X-0.337500X0.475000X0*%
G04 APERTURE END LIST*
D10*
X104866666Y-102604819D02*
X105199999Y-102128628D01*
X105438094Y-102604819D02*
X105438094Y-101604819D01*
X105438094Y-101604819D02*
X105057142Y-101604819D01*
X105057142Y-101604819D02*
X104961904Y-101652438D01*
X104961904Y-101652438D02*
X104914285Y-101700057D01*
X104914285Y-101700057D02*
X104866666Y-101795295D01*
X104866666Y-101795295D02*
X104866666Y-101938152D01*
X104866666Y-101938152D02*
X104914285Y-102033390D01*
X104914285Y-102033390D02*
X104961904Y-102081009D01*
X104961904Y-102081009D02*
X105057142Y-102128628D01*
X105057142Y-102128628D02*
X105438094Y-102128628D01*
X104533332Y-101604819D02*
X103914285Y-101604819D01*
X103914285Y-101604819D02*
X104247618Y-101985771D01*
X104247618Y-101985771D02*
X104104761Y-101985771D01*
X104104761Y-101985771D02*
X104009523Y-102033390D01*
X104009523Y-102033390D02*
X103961904Y-102081009D01*
X103961904Y-102081009D02*
X103914285Y-102176247D01*
X103914285Y-102176247D02*
X103914285Y-102414342D01*
X103914285Y-102414342D02*
X103961904Y-102509580D01*
X103961904Y-102509580D02*
X104009523Y-102557200D01*
X104009523Y-102557200D02*
X104104761Y-102604819D01*
X104104761Y-102604819D02*
X104390475Y-102604819D01*
X104390475Y-102604819D02*
X104485713Y-102557200D01*
X104485713Y-102557200D02*
X104533332Y-102509580D01*
X109179580Y-82370833D02*
X109227200Y-82323214D01*
X109227200Y-82323214D02*
X109274819Y-82180357D01*
X109274819Y-82180357D02*
X109274819Y-82085119D01*
X109274819Y-82085119D02*
X109227200Y-81942262D01*
X109227200Y-81942262D02*
X109131961Y-81847024D01*
X109131961Y-81847024D02*
X109036723Y-81799405D01*
X109036723Y-81799405D02*
X108846247Y-81751786D01*
X108846247Y-81751786D02*
X108703390Y-81751786D01*
X108703390Y-81751786D02*
X108512914Y-81799405D01*
X108512914Y-81799405D02*
X108417676Y-81847024D01*
X108417676Y-81847024D02*
X108322438Y-81942262D01*
X108322438Y-81942262D02*
X108274819Y-82085119D01*
X108274819Y-82085119D02*
X108274819Y-82180357D01*
X108274819Y-82180357D02*
X108322438Y-82323214D01*
X108322438Y-82323214D02*
X108370057Y-82370833D01*
X108608152Y-83227976D02*
X109274819Y-83227976D01*
X108227200Y-82989881D02*
X108941485Y-82751786D01*
X108941485Y-82751786D02*
X108941485Y-83370833D01*
X104866666Y-104804819D02*
X105199999Y-104328628D01*
X105438094Y-104804819D02*
X105438094Y-103804819D01*
X105438094Y-103804819D02*
X105057142Y-103804819D01*
X105057142Y-103804819D02*
X104961904Y-103852438D01*
X104961904Y-103852438D02*
X104914285Y-103900057D01*
X104914285Y-103900057D02*
X104866666Y-103995295D01*
X104866666Y-103995295D02*
X104866666Y-104138152D01*
X104866666Y-104138152D02*
X104914285Y-104233390D01*
X104914285Y-104233390D02*
X104961904Y-104281009D01*
X104961904Y-104281009D02*
X105057142Y-104328628D01*
X105057142Y-104328628D02*
X105438094Y-104328628D01*
X104485713Y-103900057D02*
X104438094Y-103852438D01*
X104438094Y-103852438D02*
X104342856Y-103804819D01*
X104342856Y-103804819D02*
X104104761Y-103804819D01*
X104104761Y-103804819D02*
X104009523Y-103852438D01*
X104009523Y-103852438D02*
X103961904Y-103900057D01*
X103961904Y-103900057D02*
X103914285Y-103995295D01*
X103914285Y-103995295D02*
X103914285Y-104090533D01*
X103914285Y-104090533D02*
X103961904Y-104233390D01*
X103961904Y-104233390D02*
X104533332Y-104804819D01*
X104533332Y-104804819D02*
X103914285Y-104804819D01*
X106679580Y-82370833D02*
X106727200Y-82323214D01*
X106727200Y-82323214D02*
X106774819Y-82180357D01*
X106774819Y-82180357D02*
X106774819Y-82085119D01*
X106774819Y-82085119D02*
X106727200Y-81942262D01*
X106727200Y-81942262D02*
X106631961Y-81847024D01*
X106631961Y-81847024D02*
X106536723Y-81799405D01*
X106536723Y-81799405D02*
X106346247Y-81751786D01*
X106346247Y-81751786D02*
X106203390Y-81751786D01*
X106203390Y-81751786D02*
X106012914Y-81799405D01*
X106012914Y-81799405D02*
X105917676Y-81847024D01*
X105917676Y-81847024D02*
X105822438Y-81942262D01*
X105822438Y-81942262D02*
X105774819Y-82085119D01*
X105774819Y-82085119D02*
X105774819Y-82180357D01*
X105774819Y-82180357D02*
X105822438Y-82323214D01*
X105822438Y-82323214D02*
X105870057Y-82370833D01*
X105774819Y-83275595D02*
X105774819Y-82799405D01*
X105774819Y-82799405D02*
X106251009Y-82751786D01*
X106251009Y-82751786D02*
X106203390Y-82799405D01*
X106203390Y-82799405D02*
X106155771Y-82894643D01*
X106155771Y-82894643D02*
X106155771Y-83132738D01*
X106155771Y-83132738D02*
X106203390Y-83227976D01*
X106203390Y-83227976D02*
X106251009Y-83275595D01*
X106251009Y-83275595D02*
X106346247Y-83323214D01*
X106346247Y-83323214D02*
X106584342Y-83323214D01*
X106584342Y-83323214D02*
X106679580Y-83275595D01*
X106679580Y-83275595D02*
X106727200Y-83227976D01*
X106727200Y-83227976D02*
X106774819Y-83132738D01*
X106774819Y-83132738D02*
X106774819Y-82894643D01*
X106774819Y-82894643D02*
X106727200Y-82799405D01*
X106727200Y-82799405D02*
X106679580Y-82751786D01*
X103857200Y-90616667D02*
X103904819Y-90759524D01*
X103904819Y-90759524D02*
X103904819Y-90997619D01*
X103904819Y-90997619D02*
X103857200Y-91092857D01*
X103857200Y-91092857D02*
X103809580Y-91140476D01*
X103809580Y-91140476D02*
X103714342Y-91188095D01*
X103714342Y-91188095D02*
X103619104Y-91188095D01*
X103619104Y-91188095D02*
X103523866Y-91140476D01*
X103523866Y-91140476D02*
X103476247Y-91092857D01*
X103476247Y-91092857D02*
X103428628Y-90997619D01*
X103428628Y-90997619D02*
X103381009Y-90807143D01*
X103381009Y-90807143D02*
X103333390Y-90711905D01*
X103333390Y-90711905D02*
X103285771Y-90664286D01*
X103285771Y-90664286D02*
X103190533Y-90616667D01*
X103190533Y-90616667D02*
X103095295Y-90616667D01*
X103095295Y-90616667D02*
X103000057Y-90664286D01*
X103000057Y-90664286D02*
X102952438Y-90711905D01*
X102952438Y-90711905D02*
X102904819Y-90807143D01*
X102904819Y-90807143D02*
X102904819Y-91045238D01*
X102904819Y-91045238D02*
X102952438Y-91188095D01*
X102904819Y-91521429D02*
X103904819Y-91759524D01*
X103904819Y-91759524D02*
X103190533Y-91950000D01*
X103190533Y-91950000D02*
X103904819Y-92140476D01*
X103904819Y-92140476D02*
X102904819Y-92378572D01*
X103000057Y-92711905D02*
X102952438Y-92759524D01*
X102952438Y-92759524D02*
X102904819Y-92854762D01*
X102904819Y-92854762D02*
X102904819Y-93092857D01*
X102904819Y-93092857D02*
X102952438Y-93188095D01*
X102952438Y-93188095D02*
X103000057Y-93235714D01*
X103000057Y-93235714D02*
X103095295Y-93283333D01*
X103095295Y-93283333D02*
X103190533Y-93283333D01*
X103190533Y-93283333D02*
X103333390Y-93235714D01*
X103333390Y-93235714D02*
X103904819Y-92664286D01*
X103904819Y-92664286D02*
X103904819Y-93283333D01*
X107539580Y-86370833D02*
X107587200Y-86323214D01*
X107587200Y-86323214D02*
X107634819Y-86180357D01*
X107634819Y-86180357D02*
X107634819Y-86085119D01*
X107634819Y-86085119D02*
X107587200Y-85942262D01*
X107587200Y-85942262D02*
X107491961Y-85847024D01*
X107491961Y-85847024D02*
X107396723Y-85799405D01*
X107396723Y-85799405D02*
X107206247Y-85751786D01*
X107206247Y-85751786D02*
X107063390Y-85751786D01*
X107063390Y-85751786D02*
X106872914Y-85799405D01*
X106872914Y-85799405D02*
X106777676Y-85847024D01*
X106777676Y-85847024D02*
X106682438Y-85942262D01*
X106682438Y-85942262D02*
X106634819Y-86085119D01*
X106634819Y-86085119D02*
X106634819Y-86180357D01*
X106634819Y-86180357D02*
X106682438Y-86323214D01*
X106682438Y-86323214D02*
X106730057Y-86370833D01*
X106634819Y-86704167D02*
X106634819Y-87323214D01*
X106634819Y-87323214D02*
X107015771Y-86989881D01*
X107015771Y-86989881D02*
X107015771Y-87132738D01*
X107015771Y-87132738D02*
X107063390Y-87227976D01*
X107063390Y-87227976D02*
X107111009Y-87275595D01*
X107111009Y-87275595D02*
X107206247Y-87323214D01*
X107206247Y-87323214D02*
X107444342Y-87323214D01*
X107444342Y-87323214D02*
X107539580Y-87275595D01*
X107539580Y-87275595D02*
X107587200Y-87227976D01*
X107587200Y-87227976D02*
X107634819Y-87132738D01*
X107634819Y-87132738D02*
X107634819Y-86847024D01*
X107634819Y-86847024D02*
X107587200Y-86751786D01*
X107587200Y-86751786D02*
X107539580Y-86704167D01*
X114829166Y-99879580D02*
X114876785Y-99927200D01*
X114876785Y-99927200D02*
X115019642Y-99974819D01*
X115019642Y-99974819D02*
X115114880Y-99974819D01*
X115114880Y-99974819D02*
X115257737Y-99927200D01*
X115257737Y-99927200D02*
X115352975Y-99831961D01*
X115352975Y-99831961D02*
X115400594Y-99736723D01*
X115400594Y-99736723D02*
X115448213Y-99546247D01*
X115448213Y-99546247D02*
X115448213Y-99403390D01*
X115448213Y-99403390D02*
X115400594Y-99212914D01*
X115400594Y-99212914D02*
X115352975Y-99117676D01*
X115352975Y-99117676D02*
X115257737Y-99022438D01*
X115257737Y-99022438D02*
X115114880Y-98974819D01*
X115114880Y-98974819D02*
X115019642Y-98974819D01*
X115019642Y-98974819D02*
X114876785Y-99022438D01*
X114876785Y-99022438D02*
X114829166Y-99070057D01*
X114448213Y-99070057D02*
X114400594Y-99022438D01*
X114400594Y-99022438D02*
X114305356Y-98974819D01*
X114305356Y-98974819D02*
X114067261Y-98974819D01*
X114067261Y-98974819D02*
X113972023Y-99022438D01*
X113972023Y-99022438D02*
X113924404Y-99070057D01*
X113924404Y-99070057D02*
X113876785Y-99165295D01*
X113876785Y-99165295D02*
X113876785Y-99260533D01*
X113876785Y-99260533D02*
X113924404Y-99403390D01*
X113924404Y-99403390D02*
X114495832Y-99974819D01*
X114495832Y-99974819D02*
X113876785Y-99974819D01*
X114661904Y-81856819D02*
X114090476Y-81856819D01*
X114376190Y-82856819D02*
X114376190Y-81856819D01*
X113757142Y-82856819D02*
X113757142Y-81856819D01*
X113757142Y-81856819D02*
X113376190Y-81856819D01*
X113376190Y-81856819D02*
X113280952Y-81904438D01*
X113280952Y-81904438D02*
X113233333Y-81952057D01*
X113233333Y-81952057D02*
X113185714Y-82047295D01*
X113185714Y-82047295D02*
X113185714Y-82190152D01*
X113185714Y-82190152D02*
X113233333Y-82285390D01*
X113233333Y-82285390D02*
X113280952Y-82333009D01*
X113280952Y-82333009D02*
X113376190Y-82380628D01*
X113376190Y-82380628D02*
X113757142Y-82380628D01*
X112233333Y-82856819D02*
X112804761Y-82856819D01*
X112519047Y-82856819D02*
X112519047Y-81856819D01*
X112519047Y-81856819D02*
X112614285Y-81999676D01*
X112614285Y-81999676D02*
X112709523Y-82094914D01*
X112709523Y-82094914D02*
X112804761Y-82142533D01*
X113433332Y-90157200D02*
X113290475Y-90204819D01*
X113290475Y-90204819D02*
X113052380Y-90204819D01*
X113052380Y-90204819D02*
X112957142Y-90157200D01*
X112957142Y-90157200D02*
X112909523Y-90109580D01*
X112909523Y-90109580D02*
X112861904Y-90014342D01*
X112861904Y-90014342D02*
X112861904Y-89919104D01*
X112861904Y-89919104D02*
X112909523Y-89823866D01*
X112909523Y-89823866D02*
X112957142Y-89776247D01*
X112957142Y-89776247D02*
X113052380Y-89728628D01*
X113052380Y-89728628D02*
X113242856Y-89681009D01*
X113242856Y-89681009D02*
X113338094Y-89633390D01*
X113338094Y-89633390D02*
X113385713Y-89585771D01*
X113385713Y-89585771D02*
X113433332Y-89490533D01*
X113433332Y-89490533D02*
X113433332Y-89395295D01*
X113433332Y-89395295D02*
X113385713Y-89300057D01*
X113385713Y-89300057D02*
X113338094Y-89252438D01*
X113338094Y-89252438D02*
X113242856Y-89204819D01*
X113242856Y-89204819D02*
X113004761Y-89204819D01*
X113004761Y-89204819D02*
X112861904Y-89252438D01*
X112528570Y-89204819D02*
X112290475Y-90204819D01*
X112290475Y-90204819D02*
X112099999Y-89490533D01*
X112099999Y-89490533D02*
X111909523Y-90204819D01*
X111909523Y-90204819D02*
X111671428Y-89204819D01*
X110766666Y-90204819D02*
X111338094Y-90204819D01*
X111052380Y-90204819D02*
X111052380Y-89204819D01*
X111052380Y-89204819D02*
X111147618Y-89347676D01*
X111147618Y-89347676D02*
X111242856Y-89442914D01*
X111242856Y-89442914D02*
X111338094Y-89490533D01*
X121261904Y-102456819D02*
X120690476Y-102456819D01*
X120976190Y-103456819D02*
X120976190Y-102456819D01*
X120357142Y-103456819D02*
X120357142Y-102456819D01*
X120357142Y-102456819D02*
X119976190Y-102456819D01*
X119976190Y-102456819D02*
X119880952Y-102504438D01*
X119880952Y-102504438D02*
X119833333Y-102552057D01*
X119833333Y-102552057D02*
X119785714Y-102647295D01*
X119785714Y-102647295D02*
X119785714Y-102790152D01*
X119785714Y-102790152D02*
X119833333Y-102885390D01*
X119833333Y-102885390D02*
X119880952Y-102933009D01*
X119880952Y-102933009D02*
X119976190Y-102980628D01*
X119976190Y-102980628D02*
X120357142Y-102980628D01*
X119404761Y-102552057D02*
X119357142Y-102504438D01*
X119357142Y-102504438D02*
X119261904Y-102456819D01*
X119261904Y-102456819D02*
X119023809Y-102456819D01*
X119023809Y-102456819D02*
X118928571Y-102504438D01*
X118928571Y-102504438D02*
X118880952Y-102552057D01*
X118880952Y-102552057D02*
X118833333Y-102647295D01*
X118833333Y-102647295D02*
X118833333Y-102742533D01*
X118833333Y-102742533D02*
X118880952Y-102885390D01*
X118880952Y-102885390D02*
X119452380Y-103456819D01*
X119452380Y-103456819D02*
X118833333Y-103456819D01*
X109466666Y-103239580D02*
X109514285Y-103287200D01*
X109514285Y-103287200D02*
X109657142Y-103334819D01*
X109657142Y-103334819D02*
X109752380Y-103334819D01*
X109752380Y-103334819D02*
X109895237Y-103287200D01*
X109895237Y-103287200D02*
X109990475Y-103191961D01*
X109990475Y-103191961D02*
X110038094Y-103096723D01*
X110038094Y-103096723D02*
X110085713Y-102906247D01*
X110085713Y-102906247D02*
X110085713Y-102763390D01*
X110085713Y-102763390D02*
X110038094Y-102572914D01*
X110038094Y-102572914D02*
X109990475Y-102477676D01*
X109990475Y-102477676D02*
X109895237Y-102382438D01*
X109895237Y-102382438D02*
X109752380Y-102334819D01*
X109752380Y-102334819D02*
X109657142Y-102334819D01*
X109657142Y-102334819D02*
X109514285Y-102382438D01*
X109514285Y-102382438D02*
X109466666Y-102430057D01*
X108514285Y-103334819D02*
X109085713Y-103334819D01*
X108799999Y-103334819D02*
X108799999Y-102334819D01*
X108799999Y-102334819D02*
X108895237Y-102477676D01*
X108895237Y-102477676D02*
X108990475Y-102572914D01*
X108990475Y-102572914D02*
X109085713Y-102620533D01*
D11*
%TO.C,R4*%
X104765000Y-82727064D02*
X104765000Y-82272936D01*
X106235000Y-82727064D02*
X106235000Y-82272936D01*
%TO.C,R3*%
X104927064Y-99765000D02*
X104472936Y-99765000D01*
X104927064Y-101235000D02*
X104472936Y-101235000D01*
%TO.C,C4*%
X109765000Y-82798752D02*
X109765000Y-82276248D01*
X111235000Y-82798752D02*
X111235000Y-82276248D01*
%TO.C,R2*%
X104927064Y-101965000D02*
X104472936Y-101965000D01*
X104927064Y-103435000D02*
X104472936Y-103435000D01*
%TO.C,D1*%
X110495000Y-97100000D02*
X113335000Y-97100000D01*
X110495000Y-99400000D02*
X113335000Y-99400000D01*
X113335000Y-97750000D02*
X113335000Y-97100000D01*
%TO.C,C5*%
X107265000Y-82798752D02*
X107265000Y-82276248D01*
X108735000Y-82798752D02*
X108735000Y-82276248D01*
%TO.C,J1*%
X116025000Y-81240000D02*
X117015000Y-81240000D01*
X117015000Y-80190000D02*
X119515000Y-80190000D01*
X117015000Y-81240000D02*
X117015000Y-80190000D01*
X117015000Y-85360000D02*
X117015000Y-86410000D01*
X117015000Y-86410000D02*
X119515000Y-86410000D01*
X121485000Y-85240000D02*
X121485000Y-81360000D01*
%TO.C,SW2*%
X104350000Y-89750000D02*
X104350000Y-94150000D01*
X105850000Y-89750000D02*
X105950000Y-89750000D01*
X105850000Y-94150000D02*
X105950000Y-94150000D01*
X107450000Y-94150000D02*
X107450000Y-89750000D01*
%TO.C,C3*%
X104765000Y-86276248D02*
X104765000Y-86798752D01*
X106235000Y-86276248D02*
X106235000Y-86798752D01*
%TO.C,C2*%
X114401248Y-100465000D02*
X114923752Y-100465000D01*
X114401248Y-101935000D02*
X114923752Y-101935000D01*
%TO.C,TP1*%
X114600000Y-84400000D02*
G75*
G02*
X112200000Y-84400000I-1200000J0D01*
G01*
X112200000Y-84400000D02*
G75*
G02*
X114600000Y-84400000I1200000J0D01*
G01*
%TO.C,SW1*%
X109380000Y-92310000D02*
X109380000Y-94390000D01*
X110160000Y-91120000D02*
X110650000Y-90630000D01*
X110160000Y-95580000D02*
X110650000Y-96070000D01*
X110650000Y-90630000D02*
X113550000Y-90630000D01*
X110650000Y-96070000D02*
X113550000Y-96070000D01*
X114040000Y-91120000D02*
X113550000Y-90630000D01*
X114040000Y-95580000D02*
X113550000Y-96070000D01*
X114820000Y-92310000D02*
X114820000Y-94390000D01*
%TO.C,TP2*%
X121200000Y-105000000D02*
G75*
G02*
X118800000Y-105000000I-1200000J0D01*
G01*
X118800000Y-105000000D02*
G75*
G02*
X121200000Y-105000000I1200000J0D01*
G01*
%TO.C,U2*%
X117990000Y-99700000D02*
X117990000Y-100500000D01*
X117990000Y-101300000D02*
X117990000Y-100500000D01*
X121110000Y-99700000D02*
X121110000Y-100500000D01*
X121110000Y-101300000D02*
X121110000Y-100500000D01*
X121390000Y-102040000D02*
X121060000Y-101800000D01*
X121390000Y-101560000D01*
X121390000Y-102040000D01*
G36*
X121390000Y-102040000D02*
G01*
X121060000Y-101800000D01*
X121390000Y-101560000D01*
X121390000Y-102040000D01*
G37*
%TO.C,C1*%
X109561252Y-100465000D02*
X109038748Y-100465000D01*
X109561252Y-101935000D02*
X109038748Y-101935000D01*
%TD*%
%LPC*%
D12*
%TO.C,P1*%
X106770000Y-105360000D03*
X117230000Y-105360000D03*
%TD*%
D13*
%TO.C,R4*%
X105500000Y-81500000D03*
X105500000Y-83500000D03*
%TD*%
D14*
%TO.C,R3*%
X103700000Y-100500000D03*
X105700000Y-100500000D03*
%TD*%
D15*
%TO.C,C4*%
X110500000Y-81500000D03*
X110500000Y-83575000D03*
%TD*%
D14*
%TO.C,R2*%
X103700000Y-102700000D03*
X105700000Y-102700000D03*
%TD*%
D16*
%TO.C,D1*%
X112830000Y-97700000D03*
X112830000Y-98800000D03*
X111000000Y-98800000D03*
X111000000Y-97700000D03*
%TD*%
D15*
%TO.C,C5*%
X108000000Y-81500000D03*
X108000000Y-83575000D03*
%TD*%
D17*
%TO.C,J1*%
X116800000Y-81800000D03*
X116800000Y-82800000D03*
X116800000Y-83800000D03*
X116800000Y-84800000D03*
D18*
X120675000Y-80500000D03*
X120675000Y-86100000D03*
%TD*%
D19*
%TO.C,SW2*%
X105100000Y-89900000D03*
X105100000Y-94000000D03*
X106700000Y-89900000D03*
X106700000Y-94000000D03*
%TD*%
D20*
%TO.C,C3*%
X105500000Y-87575000D03*
X105500000Y-85500000D03*
%TD*%
D21*
%TO.C,C2*%
X115700000Y-101200000D03*
X113625000Y-101200000D03*
%TD*%
D22*
%TO.C,TP1*%
X113400000Y-84400000D03*
%TD*%
D23*
%TO.C,SW1*%
X115200000Y-91500000D03*
X109000000Y-91500000D03*
X115200000Y-95200000D03*
X109000000Y-95200000D03*
%TD*%
D22*
%TO.C,TP2*%
X120000000Y-105000000D03*
%TD*%
D24*
%TO.C,U2*%
X120500000Y-101637500D03*
X119550000Y-101637500D03*
X118600000Y-101637500D03*
X118600000Y-99362500D03*
X120500000Y-99362500D03*
%TD*%
D25*
%TO.C,C1*%
X108262500Y-101200000D03*
X110337500Y-101200000D03*
%TD*%
%LPD*%
M02*
