%TF.GenerationSoftware,KiCad,Pcbnew,9.0.6*%
%TF.CreationDate,2026-03-20T20:15:30-06:00*%
%TF.ProjectId,ToothPaste_V1_USB_C,546f6f74-6850-4617-9374-655f56315f55,rev?*%
%TF.SameCoordinates,Original*%
%TF.FileFunction,Paste,Bot*%
%TF.FilePolarity,Positive*%
%FSLAX46Y46*%
G04 Gerber Fmt 4.6, Leading zero omitted, Abs format (unit mm)*
G04 Created by KiCad (PCBNEW 9.0.6) date 2026-03-20 20:15:30*
%MOMM*%
%LPD*%
G01*
G04 APERTURE LIST*
G04 Aperture macros list*
%AMRoundRect*
0 Rectangle with rounded corners*
0 $1 Rounding radius*
0 $2 $3 $4 $5 $6 $7 $8 $9 X,Y pos of 4 corners*
0 Add a 4 corners polygon primitive as box body*
4,1,4,$2,$3,$4,$5,$6,$7,$8,$9,$2,$3,0*
0 Add four circle primitives for the rounded corners*
1,1,$1+$1,$2,$3*
1,1,$1+$1,$4,$5*
1,1,$1+$1,$6,$7*
1,1,$1+$1,$8,$9*
0 Add four rect primitives between the rounded corners*
20,1,$1+$1,$2,$3,$4,$5,0*
20,1,$1+$1,$4,$5,$6,$7,0*
20,1,$1+$1,$6,$7,$8,$9,0*
20,1,$1+$1,$8,$9,$2,$3,0*%
G04 Aperture macros list end*
%ADD10RoundRect,0.250000X-0.450000X0.350000X-0.450000X-0.350000X0.450000X-0.350000X0.450000X0.350000X0*%
%ADD11RoundRect,0.250000X-0.350000X-0.450000X0.350000X-0.450000X0.350000X0.450000X-0.350000X0.450000X0*%
%ADD12RoundRect,0.250000X-0.475000X0.337500X-0.475000X-0.337500X0.475000X-0.337500X0.475000X0.337500X0*%
%ADD13R,0.700000X0.700000*%
%ADD14RoundRect,0.150000X-0.625000X0.150000X-0.625000X-0.150000X0.625000X-0.150000X0.625000X0.150000X0*%
%ADD15RoundRect,0.250000X-0.650000X0.350000X-0.650000X-0.350000X0.650000X-0.350000X0.650000X0.350000X0*%
%ADD16R,1.000000X0.900000*%
%ADD17RoundRect,0.250000X0.475000X-0.337500X0.475000X0.337500X-0.475000X0.337500X-0.475000X-0.337500X0*%
%ADD18RoundRect,0.250000X0.337500X0.475000X-0.337500X0.475000X-0.337500X-0.475000X0.337500X-0.475000X0*%
%ADD19R,1.800000X1.100000*%
%ADD20RoundRect,0.150000X0.150000X-0.512500X0.150000X0.512500X-0.150000X0.512500X-0.150000X-0.512500X0*%
%ADD21RoundRect,0.250000X-0.337500X-0.475000X0.337500X-0.475000X0.337500X0.475000X-0.337500X0.475000X0*%
G04 APERTURE END LIST*
D10*
%TO.C,R4*%
X105500000Y-81500000D03*
X105500000Y-83500000D03*
%TD*%
D11*
%TO.C,R3*%
X103700000Y-100500000D03*
X105700000Y-100500000D03*
%TD*%
D12*
%TO.C,C4*%
X110500000Y-81500000D03*
X110500000Y-83575000D03*
%TD*%
D11*
%TO.C,R2*%
X103700000Y-102700000D03*
X105700000Y-102700000D03*
%TD*%
D13*
%TO.C,D1*%
X112830000Y-97700000D03*
X112830000Y-98800000D03*
X111000000Y-98800000D03*
X111000000Y-97700000D03*
%TD*%
D12*
%TO.C,C5*%
X108000000Y-81500000D03*
X108000000Y-83575000D03*
%TD*%
D14*
%TO.C,J1*%
X116800000Y-81800000D03*
X116800000Y-82800000D03*
X116800000Y-83800000D03*
X116800000Y-84800000D03*
D15*
X120675000Y-80500000D03*
X120675000Y-86100000D03*
%TD*%
D16*
%TO.C,SW2*%
X105100000Y-89900000D03*
X105100000Y-94000000D03*
X106700000Y-89900000D03*
X106700000Y-94000000D03*
%TD*%
D17*
%TO.C,C3*%
X105500000Y-87575000D03*
X105500000Y-85500000D03*
%TD*%
D18*
%TO.C,C2*%
X115700000Y-101200000D03*
X113625000Y-101200000D03*
%TD*%
D19*
%TO.C,SW1*%
X115200000Y-91500000D03*
X109000000Y-91500000D03*
X115200000Y-95200000D03*
X109000000Y-95200000D03*
%TD*%
D20*
%TO.C,U2*%
X120500000Y-101637500D03*
X119550000Y-101637500D03*
X118600000Y-101637500D03*
X118600000Y-99362500D03*
X120500000Y-99362500D03*
%TD*%
D21*
%TO.C,C1*%
X108262500Y-101200000D03*
X110337500Y-101200000D03*
%TD*%
M02*
