%TF.GenerationSoftware,KiCad,Pcbnew,9.0.6*%
%TF.CreationDate,2026-03-20T20:15:30-06:00*%
%TF.ProjectId,ToothPaste_V1_USB_C,546f6f74-6850-4617-9374-655f56315f55,rev?*%
%TF.SameCoordinates,Original*%
%TF.FileFunction,Paste,Top*%
%TF.FilePolarity,Positive*%
%FSLAX46Y46*%
G04 Gerber Fmt 4.6, Leading zero omitted, Abs format (unit mm)*
G04 Created by KiCad (PCBNEW 9.0.6) date 2026-03-20 20:15:30*
%MOMM*%
%LPD*%
G01*
G04 APERTURE LIST*
G04 Aperture macros list*
%AMRoundRect*
0 Rectangle with rounded corners*
0 $1 Rounding radius*
0 $2 $3 $4 $5 $6 $7 $8 $9 X,Y pos of 4 corners*
0 Add a 4 corners polygon primitive as box body*
4,1,4,$2,$3,$4,$5,$6,$7,$8,$9,$2,$3,0*
0 Add four circle primitives for the rounded corners*
1,1,$1+$1,$2,$3*
1,1,$1+$1,$4,$5*
1,1,$1+$1,$6,$7*
1,1,$1+$1,$8,$9*
0 Add four rect primitives between the rounded corners*
20,1,$1+$1,$2,$3,$4,$5,0*
20,1,$1+$1,$4,$5,$6,$7,0*
20,1,$1+$1,$6,$7,$8,$9,0*
20,1,$1+$1,$8,$9,$2,$3,0*%
G04 Aperture macros list end*
%ADD10R,0.800000X1.350000*%
%ADD11R,0.300000X1.350000*%
%ADD12RoundRect,0.250000X0.350000X0.450000X-0.350000X0.450000X-0.350000X-0.450000X0.350000X-0.450000X0*%
%ADD13R,0.900000X0.900000*%
%ADD14R,1.500000X0.900000*%
%ADD15R,0.900000X1.500000*%
G04 APERTURE END LIST*
D10*
%TO.C,P1*%
X107900000Y-103500000D03*
X116100000Y-103500000D03*
D11*
X114750000Y-103500000D03*
X114250000Y-103500000D03*
X113750000Y-103500000D03*
X113250000Y-103500000D03*
X112750000Y-103500000D03*
X112250000Y-103500000D03*
X111750000Y-103500000D03*
X111250000Y-103500000D03*
X110750000Y-103500000D03*
X109250000Y-103500000D03*
X109750000Y-103500000D03*
X110250000Y-103500000D03*
%TD*%
D12*
%TO.C,R1*%
X116900000Y-100200000D03*
X114900000Y-100200000D03*
%TD*%
D13*
%TO.C,U1*%
X109115000Y-86560000D03*
X109115000Y-87960000D03*
X109115000Y-89360000D03*
X110515000Y-86560000D03*
X110515000Y-87960000D03*
X110515000Y-89360000D03*
X111915000Y-86560000D03*
X111915000Y-87960000D03*
X111915000Y-89360000D03*
D14*
X103265000Y-80240000D03*
X103265000Y-81510000D03*
X103265000Y-82780000D03*
X103265000Y-84050000D03*
X103265000Y-85320000D03*
X103265000Y-86590000D03*
X103265000Y-87860000D03*
X103265000Y-89130000D03*
X103265000Y-90400000D03*
X103265000Y-91670000D03*
X103265000Y-92940000D03*
X103265000Y-94210000D03*
X103265000Y-95480000D03*
X103265000Y-96750000D03*
D15*
X105030000Y-98000000D03*
X106300000Y-98000000D03*
X107570000Y-98000000D03*
X108840000Y-98000000D03*
X110110000Y-98000000D03*
X111380000Y-98000000D03*
X112650000Y-98000000D03*
X113920000Y-98000000D03*
X115190000Y-98000000D03*
X116460000Y-98000000D03*
X117730000Y-98000000D03*
X119000000Y-98000000D03*
D14*
X120765000Y-96750000D03*
X120765000Y-95480000D03*
X120765000Y-94210000D03*
X120765000Y-92940000D03*
X120765000Y-91670000D03*
X120765000Y-90400000D03*
X120765000Y-89130000D03*
X120765000Y-87860000D03*
X120765000Y-86590000D03*
X120765000Y-85320000D03*
X120765000Y-84050000D03*
X120765000Y-82780000D03*
X120765000Y-81510000D03*
X120765000Y-80240000D03*
%TD*%
M02*
