%TF.GenerationSoftware,KiCad,Pcbnew,9.0.6*%
%TF.CreationDate,2026-03-20T20:15:30-06:00*%
%TF.ProjectId,ToothPaste_V1_USB_C,546f6f74-6850-4617-9374-655f56315f55,rev?*%
%TF.SameCoordinates,Original*%
%TF.FileFunction,Legend,Top*%
%TF.FilePolarity,Positive*%
%FSLAX46Y46*%
G04 Gerber Fmt 4.6, Leading zero omitted, Abs format (unit mm)*
G04 Created by KiCad (PCBNEW 9.0.6) date 2026-03-20 20:15:30*
%MOMM*%
%LPD*%
G01*
G04 APERTURE LIST*
G04 Aperture macros list*
%AMRoundRect*
0 Rectangle with rounded corners*
0 $1 Rounding radius*
0 $2 $3 $4 $5 $6 $7 $8 $9 X,Y pos of 4 corners*
0 Add a 4 corners polygon primitive as box body*
4,1,4,$2,$3,$4,$5,$6,$7,$8,$9,$2,$3,0*
0 Add four circle primitives for the rounded corners*
1,1,$1+$1,$2,$3*
1,1,$1+$1,$4,$5*
1,1,$1+$1,$6,$7*
1,1,$1+$1,$8,$9*
0 Add four rect primitives between the rounded corners*
20,1,$1+$1,$2,$3,$4,$5,0*
20,1,$1+$1,$4,$5,$6,$7,0*
20,1,$1+$1,$6,$7,$8,$9,0*
20,1,$1+$1,$8,$9,$2,$3,0*%
G04 Aperture macros list end*
%ADD10C,0.150000*%
%ADD11C,0.250000*%
%ADD12C,0.120000*%
%ADD13R,0.800000X1.350000*%
%ADD14O,1.000000X2.100000*%
%ADD15R,0.300000X1.350000*%
%ADD16RoundRect,0.250000X0.350000X0.450000X-0.350000X0.450000X-0.350000X-0.450000X0.350000X-0.450000X0*%
%ADD17R,1.500000X0.900000*%
%ADD18R,0.900000X1.500000*%
%ADD19C,0.600000*%
%ADD20R,3.900000X3.900000*%
G04 APERTURE END LIST*
D10*
X115733333Y-102304819D02*
X115400000Y-101828628D01*
X115161905Y-102304819D02*
X115161905Y-101304819D01*
X115161905Y-101304819D02*
X115542857Y-101304819D01*
X115542857Y-101304819D02*
X115638095Y-101352438D01*
X115638095Y-101352438D02*
X115685714Y-101400057D01*
X115685714Y-101400057D02*
X115733333Y-101495295D01*
X115733333Y-101495295D02*
X115733333Y-101638152D01*
X115733333Y-101638152D02*
X115685714Y-101733390D01*
X115685714Y-101733390D02*
X115638095Y-101781009D01*
X115638095Y-101781009D02*
X115542857Y-101828628D01*
X115542857Y-101828628D02*
X115161905Y-101828628D01*
X116685714Y-102304819D02*
X116114286Y-102304819D01*
X116400000Y-102304819D02*
X116400000Y-101304819D01*
X116400000Y-101304819D02*
X116304762Y-101447676D01*
X116304762Y-101447676D02*
X116209524Y-101542914D01*
X116209524Y-101542914D02*
X116114286Y-101590533D01*
D11*
%TO.C,P1*%
X107810000Y-104390000D02*
X108390000Y-104390000D01*
X107810000Y-116400000D02*
X107810000Y-104390000D01*
X108340000Y-104400000D02*
X109030000Y-104400000D01*
X109460000Y-104400000D02*
X109530000Y-104400000D01*
X109960000Y-104400000D02*
X110030000Y-104400000D01*
X110460000Y-104400000D02*
X110530000Y-104400000D01*
X110960000Y-104400000D02*
X111030000Y-104400000D01*
X111460000Y-104400000D02*
X111530000Y-104400000D01*
X111960000Y-104400000D02*
X112030000Y-104400000D01*
X112460000Y-104400000D02*
X112530000Y-104400000D01*
X112960000Y-104400000D02*
X113030000Y-104400000D01*
X113460000Y-104400000D02*
X113530000Y-104400000D01*
X113960000Y-104400000D02*
X114030000Y-104400000D01*
X114460000Y-104400000D02*
X114530000Y-104400000D01*
X114960000Y-104400000D02*
X115650000Y-104400000D01*
X116180000Y-104410000D02*
X116180000Y-116400000D01*
X116180000Y-116400000D02*
X107810000Y-116400000D01*
D12*
%TO.C,R1*%
X116127064Y-99465000D02*
X115672936Y-99465000D01*
X116127064Y-100935000D02*
X115672936Y-100935000D01*
%TO.C,U1*%
X102815000Y-72600000D02*
X102815000Y-78800000D01*
X102815000Y-72600000D02*
X121215000Y-72600000D01*
X102815000Y-97450000D02*
X102815000Y-98450000D01*
X102815000Y-98450000D02*
X104315000Y-98450000D01*
X121215000Y-72600000D02*
X121215000Y-78800000D01*
X121215000Y-98450000D02*
X119715000Y-98450000D01*
X121215000Y-98450000D02*
X121215000Y-97450000D01*
X102815000Y-79475000D02*
X102315000Y-79475000D01*
X102815000Y-78975000D01*
X102815000Y-79475000D01*
G36*
X102815000Y-79475000D02*
G01*
X102315000Y-79475000D01*
X102815000Y-78975000D01*
X102815000Y-79475000D01*
G37*
%TD*%
%LPC*%
D13*
%TO.C,P1*%
X107900000Y-103500000D03*
X116100000Y-103500000D03*
D14*
X106770000Y-105360000D03*
X117230000Y-105360000D03*
D15*
X114750000Y-103500000D03*
X114250000Y-103500000D03*
X113750000Y-103500000D03*
X113250000Y-103500000D03*
X112750000Y-103500000D03*
X112250000Y-103500000D03*
X111750000Y-103500000D03*
X111250000Y-103500000D03*
X110750000Y-103500000D03*
X109250000Y-103500000D03*
X109750000Y-103500000D03*
X110250000Y-103500000D03*
%TD*%
D16*
%TO.C,R1*%
X116900000Y-100200000D03*
X114900000Y-100200000D03*
%TD*%
D17*
%TO.C,U1*%
X103265000Y-80240000D03*
X103265000Y-81510000D03*
X103265000Y-82780000D03*
X103265000Y-84050000D03*
X103265000Y-85320000D03*
X103265000Y-86590000D03*
X103265000Y-87860000D03*
X103265000Y-89130000D03*
X103265000Y-90400000D03*
X103265000Y-91670000D03*
X103265000Y-92940000D03*
X103265000Y-94210000D03*
X103265000Y-95480000D03*
X103265000Y-96750000D03*
D18*
X105030000Y-98000000D03*
X106300000Y-98000000D03*
X107570000Y-98000000D03*
X108840000Y-98000000D03*
X110110000Y-98000000D03*
X111380000Y-98000000D03*
X112650000Y-98000000D03*
X113920000Y-98000000D03*
X115190000Y-98000000D03*
X116460000Y-98000000D03*
X117730000Y-98000000D03*
X119000000Y-98000000D03*
D17*
X120765000Y-96750000D03*
X120765000Y-95480000D03*
X120765000Y-94210000D03*
X120765000Y-92940000D03*
X120765000Y-91670000D03*
X120765000Y-90400000D03*
X120765000Y-89130000D03*
X120765000Y-87860000D03*
X120765000Y-86590000D03*
X120765000Y-85320000D03*
X120765000Y-84050000D03*
X120765000Y-82780000D03*
X120765000Y-81510000D03*
X120765000Y-80240000D03*
D19*
X109115000Y-87260000D03*
X109115000Y-88660000D03*
X109815000Y-86560000D03*
X109815000Y-87960000D03*
X109815000Y-89360000D03*
X110515000Y-87260000D03*
D20*
X110515000Y-87960000D03*
D19*
X110515000Y-88660000D03*
X111215000Y-86560000D03*
X111215000Y-87960000D03*
X111215000Y-89360000D03*
X111915000Y-87260000D03*
X111915000Y-88660000D03*
%TD*%
%LPD*%
M02*
